<svg xmlns="http://www.w3.org/2000/svg" viewBox="0 0 301.9 233.5">
  <defs>
    <style>
      .cls-1 {
        fill: #fccc9a;
      }

      .cls-2, .cls-4 {
        opacity: 0.19;
      }

      .cls-3, .cls-4 {
        fill: #202121;
      }

      .cls-5 {
        fill: #485d6d;
      }
    </style>
  </defs>
  <g id="back-arm" transform="translate(-73.5 -278.6)">
    <path id="Path_301" data-name="Path 301" class="cls-1" d="M311.4,303c-12.5-17.1-53.3-23.2-60.6-24.2-1.8-.1-3.7-.1-5.6-.1a118.516,118.516,0,0,0-30.3,4,137.367,137.367,0,0,0-44.7,20.7c-9.1-4.3-19.5-6.5-31.2-6.5a109.493,109.493,0,0,0-20.8,2.1l-9.4,1.8,1.5,9.4c5.8,37.2,25,129.7,77.8,186.7l4.4,4.8,6.1-2.2a142.791,142.791,0,0,0,36.9-19l16.3-11.8c1.9.1,4.6.2,8,.2,26.1,0,89.2-5.2,114.7-53.6.3.1.6.1.9.2C329.7,401.1,322.4,318.1,311.4,303Z"/>
    <g id="Group_187" data-name="Group 187" class="cls-2">
      <path id="Path_302" data-name="Path 302" class="cls-3" d="M223.9,407.2c-21.9,0-38-3.5-39.5-3.9a8.26,8.26,0,0,1,3.7-16.1h0c.8.2,78.5,17,123.5-27.3a8.273,8.273,0,1,1,11.6,11.8C293.6,400.8,253.4,407.2,223.9,407.2Z"/>
    </g>
    <g id="Group_188" data-name="Group 188">
      <path id="Path_303" data-name="Path 303" class="cls-4" d="M297.5,306.6h0c2.1.6,4.1,1.1,5.8,1.6,3.3.5,7,.3,8-3.1,2.1-6.5-20.6-16.6-20.6-16.6a108.947,108.947,0,0,0-45.4-9.9,118.516,118.516,0,0,0-30.3,4,137.367,137.367,0,0,0-44.7,20.7c-9.1-4.3-19.6-6.5-31.2-6.5a109.493,109.493,0,0,0-20.8,2.1l-8.3,1.6.4,2.6c1.2,7.9,3.1,18.4,5.7,30.5a7.1,7.1,0,0,0,4.3-.4,60.3,60.3,0,0,1,21.5-4c15.9,0,27.6,6.1,27.8,6.3a7.9,7.9,0,0,0,8.8-1c24.2-21.5,52.5-32.4,84.1-32.4a138.5,138.5,0,0,1,34.9,4.5Z"/>
    </g>
    <path id="Path_304" data-name="Path 304" class="cls-5" d="M194.4,497.2l-3.4-3.7c-26.1-28.2-46.9-68.2-61.9-119.1a501.682,501.682,0,0,1-15.9-74.8l-.2-1.9a8.83,8.83,0,0,0-8.7-7.7h-22a8.749,8.749,0,0,0-8.8,8.8V503.2a8.749,8.749,0,0,0,8.8,8.8H188a8.878,8.878,0,0,0,8.1-5.3A8.986,8.986,0,0,0,194.4,497.2Z"/>
    <path id="Path_305" data-name="Path 305" class="cls-4" d="M89.8,384.2a542.571,542.571,0,0,1-16.3-73.4V503.3a8.749,8.749,0,0,0,8.8,8.8h72.1C127.4,480.9,105.7,438,89.8,384.2Z"/>
  </g>
</svg>
