<?xml version="1.0" encoding="iso-8859-1"?>
<!-- Generator: Adobe Illustrator 19.0.0, SVG Export Plug-In . SVG Version: 6.00 Build 0)  -->
<svg version="1.1" id="Capa_1" xmlns="http://www.w3.org/2000/svg" xmlns:xlink="http://www.w3.org/1999/xlink" x="0px" y="0px"
	 viewBox="0 0 511.997 511.997" style="enable-background:new 0 0 511.997 511.997;" xml:space="preserve">
<path style="fill:#C1694F;" d="M23.198,481.041L23.198,481.041c-7.53-4.765,16.619-44.709,21.37-52.607l238.343-408.9
	c13.722-22.781,28.473-22.811,41.857-14.324l0,0c13.383,8.472,19.663,21.825,4.912,43.974L62.951,438.243
	C57.848,445.92,30.728,485.805,23.198,481.041"/>
<path style="fill:#662113;" d="M324.769,5.204c-13.383-8.486-28.135-8.457-41.857,14.324l-49.371,84.697
	c4.942,13.53,28.296,25.737,42.666,22.958l53.475-78.006C344.417,27.044,338.152,13.69,324.769,5.204"/>
<path style="fill:#C1694F;" d="M70.317,511.017L70.317,511.017c-6.088-6.515,27.723-38.136,34.312-44.578l333.1-336.791
	c19.016-18.604,33.311-14.913,44.136-3.338l0,0c10.81,11.574,13.53,26.076-6.309,43.798L113.82,483.544
	C106.952,489.676,76.406,517.532,70.317,511.017"/>
<path style="fill:#662113;" d="M481.857,126.307c-10.825-11.574-25.105-15.251-44.121,3.338l-67.3,68.049
	c0.838,13.678,22.031,32.106,34.944,33.223l70.168-60.814C495.388,152.382,492.681,137.881,481.857,126.307"/>
</svg>
