<svg xmlns="http://www.w3.org/2000/svg" viewBox="0 0 261.05 416.9">
  <defs>
    <style>
      .cls-1 {
        fill: #fccc9a;
      }

      .cls-2, .cls-4 {
        fill: #202121;
      }

      .cls-2, .cls-3 {
        opacity: 0.19;
      }
    </style>
  </defs>
  <g id="front-arm" transform="translate(-177.572)">
    <path id="Path_297" data-name="Path 297" class="cls-1" d="M290.7,288.6v-.2c-14.5-56.6,3.6-160.8,4.9-168-1.2-4-4.7-11.8-10.3-14.4a10.56,10.56,0,0,0-9.3.4c-1.4.6-2.8,1.3-4.3,2-9.1,4.4-20.4,9.7-33.9,9.7-9.9,0-19.6-2.8-29.6-8.6C186,96.7,184.8,86.4,186,81.4l.4-1.7a22.747,22.747,0,0,1-8.7-16c-1-9.9,3.4-27.1,30.2-52.5C215.9,3.8,226.7,0,240.3,0c31.7,0,72.4,21.3,91.5,34,17.1,7.1,20.7,23.4,21.1,25.8,2.1,3.4,23.1,38.8,42.8,90,16.7,43.4,36.4,109.5,35.6,177.4l-.2,19.2-1.2-.9.8,1.2c5.9,9.2,11.6,24.2,4.9,43.3a37.012,37.012,0,0,1-18.7,21.4,91.792,91.792,0,0,1-13.8,4.5,73.094,73.094,0,0,1-11.8,1,83,83,0,0,1-15.7-1.5c-45.7-14.3-53-97.3-64-112.3Z"/>
    <path id="Path_298" data-name="Path 298" class="cls-2" d="M282.1,105.2h0a9.014,9.014,0,0,1,3.2.9c5.6,2.6,9.1,10.3,10.3,14.4-1.3,7.2-19,111.3-4.9,168.1,0,0,.2.1.7.3h0c.1.1.2.1.4.2h.1a.1.1,0,0,1,.1.1c.6.3,1.5.7,2.5,1.2h0l1.2.6h0c.8.4,1.7.9,2.6,1.4h.1c5.2,2.9,11.3,6.9,12.7,10.4h0c0,.1,0,.1.1.2h.2c-20.1-50.1-2.3-144.4,1.5-172.5C316.8,102.5,282.1,105.2,282.1,105.2Z"/>
    <g id="Group_185" data-name="Group 185" class="cls-3">
      <path id="Path_299" data-name="Path 299" class="cls-4" d="M177.8,63.9a22.988,22.988,0,0,0,8.7,16l-.4,1.7c-1.2,5,0,15.3,22.2,28.1,10,5.8,19.6,8.6,29.6,8.6,13.5,0,24.7-5.4,33.9-9.7,1.5-.7,2.9-1.4,4.3-2a.349.349,0,0,0,.2-.1,57.055,57.055,0,0,1-12.7,1.5c-10.5,0-20.9-3.1-32-9.5-14.7-8.5-19.7-14.7-21.2-17.1a19.085,19.085,0,0,0,1.2-12A19.9,19.9,0,0,0,202,56.3a11.092,11.092,0,0,1-3.9-7.7c-.4-4.3.4-19.1,25.2-46a38.013,38.013,0,0,0-15.2,8.9C181.2,36.8,176.8,53.9,177.8,63.9Z"/>
    </g>
    <g id="Group_186" data-name="Group 186" class="cls-3">
      <path id="Path_300" data-name="Path 300" class="cls-4" d="M366.1,306.2a7.568,7.568,0,0,1-1.5-.1,8.138,8.138,0,0,1-6.6-9.6C371.2,224,346.9,162,346.7,161.4a8.236,8.236,0,0,1,15.3-6.1c1.1,2.7,26.3,67,12.3,144.2A8.355,8.355,0,0,1,366.1,306.2Z"/>
    </g>
  </g>
</svg>
