<?xml version="1.0" encoding="utf-8"?>
<!-- Generator: Adobe Illustrator 22.1.0, SVG Export Plug-In . SVG Version: 6.00 Build 0)  -->
<svg version="1.1" id="arm" xmlns="http://www.w3.org/2000/svg" xmlns:xlink="http://www.w3.org/1999/xlink" x="0px" y="0px"
	 viewBox="0 0 512 512" style="enable-background:new 0 0 512 512;" xml:space="preserve">
<style type="text/css">
	.st0{display:none;fill:#FCCC9A;}
	.st1{fill:#FCCC9A;}
	.st2{opacity:0.19;fill:#202121;enable-background:new    ;}
	.st3{opacity:0.19;}
	.st4{fill:#202121;}
	.st5{fill:#485D6D;}
</style>
<path id="SVGCleanerId_0" class="st0" d="M430.6,346.7l-0.8-1.2l1.2,0.9l0.2-19.2c0.8-67.9-18.9-133.9-35.6-177.4
	c-19.6-51.2-40.7-86.5-42.8-90c-0.4-2.4-4-18.7-21.1-25.8C312.7,21.3,272,0,240.3,0c-13.5,0-24.4,3.8-32.3,11.3
	c-26.8,25.4-31.2,42.6-30.2,52.5c0.9,8.9,6.1,14,8.7,16l-0.4,1.7c-1.2,5,0,15.3,22.2,28.1c10,5.8,19.6,8.6,29.6,8.6
	c13.5,0,24.7-5.4,33.9-9.7c1.5-0.7,2.9-1.4,4.3-2c3.3-1.5,6.5-1.7,9.3-0.4c5.6,2.6,9.1,10.3,10.3,14.4c-1.3,7.2-19.4,111.3-4.9,168
	l0,0.2c-14.5-6.6-29.8-9.9-45.4-9.9c-9.9,0-20.1,1.3-30.3,4c-24,6.2-40.9,17.9-44.7,20.7c-9.1-4.3-19.6-6.5-31.2-6.5
	c-6.6,0-13.6,0.7-20.8,2.1l-9.4,1.8l1.5,9.4c5.8,37.2,25,129.7,77.8,186.7l4.4,4.8l6.1-2.2c13.7-4.8,26.2-11.2,36.9-19l16.3-11.8
	c1.9,0.1,4.6,0.2,8,0.2c26.1,0,89.2-5.2,114.7-53.6c2.7,0.6,9,1.7,16.6,1.7c22.5,0,38.3-9.5,44.4-26.9
	C442.2,370.9,436.5,355.9,430.6,346.7z"/>
<g id="front-arm">
	<path class="st1" d="M290.7,288.6l0-0.2c-14.5-56.6,3.6-160.8,4.9-168c-1.2-4-4.7-11.8-10.3-14.4c-2.8-1.3-6-1.2-9.3,0.4
		c-1.4,0.6-2.8,1.3-4.3,2c-9.1,4.4-20.4,9.7-33.9,9.7c-9.9,0-19.6-2.8-29.6-8.6c-22.2-12.8-23.4-23.1-22.2-28.1l0.4-1.7
		c-2.6-2-7.8-7-8.7-16c-1-9.9,3.4-27.1,30.2-52.5C215.9,3.8,226.7,0,240.3,0c31.7,0,72.4,21.3,91.5,34c17.1,7.1,20.7,23.4,21.1,25.8
		c2.1,3.4,23.1,38.8,42.8,90c16.7,43.4,36.4,109.5,35.6,177.4l-0.2,19.2l-1.2-0.9l0.8,1.2c5.9,9.2,11.6,24.2,4.9,43.3
		c-3.4,9.7-9.8,16.9-18.7,21.4c-4.9,2-9.5,3.5-13.8,4.5c-3.7,0.6-7.6,1-11.8,1c-6.9,0-12.7-0.9-15.7-1.5
		c-45.7-14.3-53-97.3-64-112.3L290.7,288.6z"/>
	<path class="st2" d="M282.1,105.2L282.1,105.2c1.1,0.1,2.2,0.4,3.2,0.9c5.6,2.6,9.1,10.3,10.3,14.4c-1.3,7.2-19,111.3-4.9,168.1
		c0,0,0.2,0.1,0.7,0.3c0,0,0,0,0,0c0.1,0.1,0.2,0.1,0.4,0.2c0,0,0.1,0,0.1,0c0,0,0.1,0,0.1,0.1c0.6,0.3,1.5,0.7,2.5,1.2c0,0,0,0,0,0
		c0.4,0.2,0.8,0.4,1.2,0.6c0,0,0,0,0,0c0.8,0.4,1.7,0.9,2.6,1.4c0,0,0,0,0.1,0c5.2,2.9,11.3,6.9,12.7,10.4c0,0,0,0,0,0c0,0,0,0,0,0
		c0,0.1,0,0.1,0.1,0.2c0.1,0,0.2,0,0.2,0c-20.1-50.1-2.3-144.4,1.5-172.5C316.8,102.5,282.1,105.2,282.1,105.2z"/>
	<g class="st3">
		<path class="st4" d="M177.8,63.9c0.9,8.9,6.1,14,8.7,16l-0.4,1.7c-1.2,5,0,15.3,22.2,28.1c10,5.8,19.6,8.6,29.6,8.6
			c13.5,0,24.7-5.4,33.9-9.7c1.5-0.7,2.9-1.4,4.3-2c0.1,0,0.2-0.1,0.2-0.1c-4.4,1-8.6,1.5-12.7,1.5c-10.5,0-20.9-3.1-32-9.5
			c-14.7-8.5-19.7-14.7-21.2-17.1c1.7-3.8,2.1-8,1.2-12c-1.3-5.7-4.7-10.3-9.6-13.1c-0.8-0.6-3.4-3-3.9-7.7
			c-0.4-4.3,0.4-19.1,25.2-46c-5.9,1.9-11,4.8-15.2,8.9C181.2,36.8,176.8,53.9,177.8,63.9z"/>
	</g>
	<g class="st3">
		<path class="st4" d="M366.1,306.2c-0.5,0-1,0-1.5-0.1c-4.5-0.8-7.5-5.1-6.6-9.6c13.2-72.5-11.1-134.5-11.3-135.1
			c-1.7-4.2,0.4-9,4.6-10.7c4.2-1.7,9,0.4,10.7,4.6c1.1,2.7,26.3,67,12.3,144.2C373.5,303.4,370.1,306.2,366.1,306.2z"/>
	</g>
</g>
<g id="back-arm">
	<path class="st1" d="M311.4,303c-12.5-17.1-53.3-23.2-60.6-24.2c-1.8-0.1-3.7-0.1-5.6-0.1c-9.9,0-20.1,1.3-30.3,4
		c-24,6.2-40.9,17.9-44.7,20.7c-9.1-4.3-19.5-6.5-31.2-6.5c-6.6,0-13.6,0.7-20.8,2.1l-9.4,1.8l1.5,9.4c5.8,37.2,25,129.7,77.8,186.7
		l4.4,4.8l6.1-2.2c13.7-4.8,26.2-11.2,36.9-19l16.3-11.8c1.9,0.1,4.6,0.2,8,0.2c26.1,0,89.2-5.2,114.7-53.6c0.3,0.1,0.6,0.1,0.9,0.2
		C329.7,401.1,322.4,318.1,311.4,303z"/>
	<g class="st3">
		<path class="st4" d="M223.9,407.2c-21.9,0-38-3.5-39.5-3.9c-4.4-1-7.2-5.4-6.2-9.9c1-4.4,5.4-7.2,9.9-6.2l0,0
			c0.8,0.2,78.5,17,123.5-27.3c3.2-3.2,8.5-3.2,11.7,0.1c3.2,3.2,3.2,8.5-0.1,11.7C293.6,400.8,253.4,407.2,223.9,407.2z"/>
	</g>
	<g>
		<path class="st2" d="M297.5,306.6L297.5,306.6c2.1,0.6,4.1,1.1,5.8,1.6c3.3,0.5,7,0.3,8-3.1c2.1-6.5-20.6-16.6-20.6-16.6
			c-14.5-6.6-29.8-9.9-45.4-9.9c-9.9,0-20.1,1.3-30.3,4c-24,6.2-40.9,17.9-44.7,20.7c-9.1-4.3-19.6-6.5-31.2-6.5
			c-6.6,0-13.6,0.7-20.8,2.1l-8.3,1.6l0.4,2.6c1.2,7.9,3.1,18.4,5.7,30.5c1.4,0.3,2.9,0.2,4.3-0.4c6.8-2.6,14.1-4,21.5-4
			c15.9,0,27.6,6.1,27.8,6.3c1.2,0.6,2.4,0.9,3.7,0.9c1.8,0,3.7-0.7,5.1-1.9c24.2-21.5,52.5-32.4,84.1-32.4
			C276.6,302.1,288.8,304.3,297.5,306.6L297.5,306.6z"/>
	</g>
	<path class="st5" d="M194.4,497.2l-3.4-3.7c-26.1-28.2-46.9-68.2-61.9-119.1c-9.7-33-14.1-61-15.9-74.8l-0.2-1.9
		c-0.6-4.4-4.3-7.7-8.7-7.7h-22c-4.9,0-8.8,3.9-8.8,8.8v204.4c0,4.9,3.9,8.8,8.8,8.8H188c3.5,0,6.7-2.1,8.1-5.3
		C197.4,503.5,196.8,499.8,194.4,497.2z"/>
	<path class="st2" d="M89.8,384.2c-8.9-30.1-13.8-56.4-16.3-73.4v192.5c0,4.9,3.9,8.8,8.8,8.8h72.1
		C127.4,480.9,105.7,438,89.8,384.2z"/>
</g>
</svg>
