<svg id="toThin" xmlns="http://www.w3.org/2000/svg" viewBox="0 0 512 512">
  <defs>
    <style>
      .cls-1 {
        fill: #fde4e4;
      }

      .cls-2 {
        fill: #fcced3;
      }

      .cls-3 {
        fill: #fdd0d0;
      }

      .cls-4 {
        fill: #bbdcff;
      }

      .cls-5 {
        fill: #9abadb;
      }

      .cls-6 {
        fill: #ff641a;
      }

      .cls-7 {
        fill: #f03800;
      }

      .cls-8 {
        fill: #faaaaa;
      }
    </style>
  </defs>
  <path id="Path_297" data-name="Path 297" class="cls-1" d="M436.3,253.9l-73.2,66.9a245.438,245.438,0,0,1-214.2,0L75.7,254.2c5.7-12.6,12-24.9,18.3-37.5,14.1-27.6,28.8-56.1,38.7-87.3a150.891,150.891,0,0,0-9.9-107.8,14.506,14.506,0,0,1,.6-14.4A14.853,14.853,0,0,1,136.3,0H376a15.615,15.615,0,0,1,12.9,7.2c2.7,4.2,2.7,9.9.6,14.4a148.4,148.4,0,0,0-8.1,113.2c9.9,29.4,23.7,56.4,36.9,82.2Q427.751,235.9,436.3,253.9Z"/>
  <path id="Path_298" data-name="Path 298" class="cls-2" d="M436.3,253.9l-73.2,66.9A241.527,241.527,0,0,1,256,345.4V0H376a15.615,15.615,0,0,1,12.9,7.2c2.7,4.2,2.7,9.9.6,14.4a148.4,148.4,0,0,0-8.1,113.2c9.9,29.4,23.7,56.4,36.9,82.2Q427.751,235.9,436.3,253.9Z"/>
  <path id="Path_299" data-name="Path 299" class="cls-1" d="M45.927,364.241A345.218,345.218,0,0,0,62,501.746,14.984,14.984,0,0,0,76.22,512h150c8.291,0,15.78-6.709,15.78-15V367.522L136.968,335.77Z"/>
  <path id="Path_300" data-name="Path 300" class="cls-2" d="M466.3,364.55,405.246,319.9,271,397.478V497a14.991,14.991,0,0,0,15,15H436a14.984,14.984,0,0,0,14.224-10.254A345.221,345.221,0,0,0,466.3,364.55Z"/>
  <path id="Path_301" data-name="Path 301" class="cls-3" d="M271,256a15,15,0,1,1-15-15A14.854,14.854,0,0,1,271,256Z"/>
  <path id="Path_302" data-name="Path 302" class="cls-4" d="M86.605,95.395l-30-30A15,15,0,0,0,35.394,86.606L39.789,91H15a15,15,0,0,0,0,30H39.789l-4.4,4.395a15,15,0,0,0,21.211,21.211l30-30A14.993,14.993,0,0,0,86.605,95.395Z"/>
  <path id="Path_303" data-name="Path 303" class="cls-5" d="M497,91H472.211l4.395-4.395a15,15,0,0,0-21.211-21.211l-30,30a15,15,0,0,0,0,21.211l30,30a15,15,0,1,0,21.211-21.211L472.211,121H497a15,15,0,0,0,0-30Z"/>
  <path id="Path_304" data-name="Path 304" class="cls-6" d="M466.3,364.6c-80.4-20.4-131.7,14.1-169.8,51.9-5.4,5.7-15,9.3-25.5,11.1a121.247,121.247,0,0,1-15,1.2,121.37,121.37,0,0,1-14.7-1.2c-10.8-1.8-20.4-5.4-25.8-11.1-38.7-38.4-90.3-72.3-169.5-52.2,3.3-39.6,10.5-68.7,29.7-110.1l73.2,36.6a245.438,245.438,0,0,0,214.2,0l73.2-36.9C455.5,295,463,324.4,466.3,364.6Z"/>
  <path id="Path_305" data-name="Path 305" class="cls-7" d="M466.3,364.6c-80.4-20.4-131.7,14.1-169.8,51.9-5.4,5.7-15,9.3-25.5,11.1a121.247,121.247,0,0,1-15,1.2V315.4a241.538,241.538,0,0,0,107.1-24.6l73.2-36.9C455.5,295,463,324.4,466.3,364.6Z"/>
  <path id="Path_306" data-name="Path 306" class="cls-8" d="M271,256a14.854,14.854,0,0,1-15,15V241A14.853,14.853,0,0,1,271,256Z"/>
</svg>
