<svg id="menu-after-resized" xmlns="http://www.w3.org/2000/svg" viewBox="0 0 512 512">
  <defs>
    <style>
      .cls-1 {
        fill: #fff;
      }
    </style>
  </defs>
  <g id="Group_186" data-name="Group 186">
    <g id="Group_185" data-name="Group 185">
      <path id="Path_297" data-name="Path 297" class="cls-1" d="M176.792,0H59.208A59.276,59.276,0,0,0,0,59.208V176.792A59.276,59.276,0,0,0,59.208,236H176.792A59.276,59.276,0,0,0,236,176.792V59.208A59.276,59.276,0,0,0,176.792,0ZM196,176.792A19.23,19.23,0,0,1,176.792,196H59.208A19.23,19.23,0,0,1,40,176.792V59.208A19.23,19.23,0,0,1,59.208,40H176.792A19.23,19.23,0,0,1,196,59.208Z"/>
    </g>
  </g>
  <g id="Group_188" data-name="Group 188">
    <g id="Group_187" data-name="Group 187">
      <path id="Path_298" data-name="Path 298" class="cls-1" d="M452,0H336a60.068,60.068,0,0,0-60,60V176a60.068,60.068,0,0,0,60,60H452a60.068,60.068,0,0,0,60-60V60A60.068,60.068,0,0,0,452,0Zm20,176a20.023,20.023,0,0,1-20,20H336a20.023,20.023,0,0,1-20-20V60a20.023,20.023,0,0,1,20-20H452a20.023,20.023,0,0,1,20,20Z"/>
    </g>
  </g>
  <g id="Group_190" data-name="Group 190">
    <g id="Group_189" data-name="Group 189">
      <path id="Path_299" data-name="Path 299" class="cls-1" d="M176.792,276H59.208A59.276,59.276,0,0,0,0,335.208V452.792A59.276,59.276,0,0,0,59.208,512H176.792A59.276,59.276,0,0,0,236,452.792V335.208A59.276,59.276,0,0,0,176.792,276ZM196,452.792A19.23,19.23,0,0,1,176.792,472H59.208A19.23,19.23,0,0,1,40,452.792V335.208A19.23,19.23,0,0,1,59.208,316H176.792A19.23,19.23,0,0,1,196,335.208Z"/>
    </g>
  </g>
  <g id="Group_192" data-name="Group 192">
    <g id="Group_191" data-name="Group 191">
      <path id="Path_300" data-name="Path 300" class="cls-1" d="M452,276H336a60.068,60.068,0,0,0-60,60V452a60.068,60.068,0,0,0,60,60H452a60.068,60.068,0,0,0,60-60V336A60.068,60.068,0,0,0,452,276Zm20,176a20.023,20.023,0,0,1-20,20H336a20.023,20.023,0,0,1-20-20V336a20.023,20.023,0,0,1,20-20H452a20.023,20.023,0,0,1,20,20Z"/>
    </g>
  </g>
</svg>
