<svg id="Group_184" data-name="Group 184" xmlns="http://www.w3.org/2000/svg" xmlns:xlink="http://www.w3.org/1999/xlink" viewBox="0 0 266.733 535.079">
  <defs>
    <style>
      .cls-1 {
        fill: #ce3e33;
      }

      .cls-2 {
        clip-path: url(#clip-path);
      }

      .cls-3 {
        fill: #797979;
      }
    </style>
    <clipPath id="clip-path">
      <path id="Path_296" data-name="Path 296" class="cls-1" d="M0-130.708H266.733V404.371H0Z" transform="translate(0 130.708)"/>
    </clipPath>
  </defs>
  <g id="Group_183" data-name="Group 183" class="cls-2" transform="translate(0 0)">
    <g id="Group_97" data-name="Group 97" transform="translate(106.459 -0.002)">
      <path id="Path_210" data-name="Path 210" class="cls-3" d="M20.833,0c4.54,1.052,9.289,1.572,13.579,3.259,9.866,3.881,12.109,12.969,12.412,22,.528,15.892-.913,31.706-12.027,44.453-3.222,3.7-7.594,6.607-11.921,9.006-1.756.97-5.142.266-7.209-.8-10.468-5.4-16.5-14.6-19.38-25.61-2.841-10.885-3.975-22.028-2.1-33.36C-3.823,6.914,4.892.741,20.833,0" transform="translate(6.734)"/>
    </g>
    <g id="Group_98" data-name="Group 98" transform="translate(74.071 101.395)">
      <path id="Path_211" data-name="Path 211" class="cls-3" d="M43.844,24.051c0,7.365-.139,14.737.057,22.094.1,3.639-1.179,5.621-4.716,6.8-7.979,2.653-15.929,2.1-24.075,1.036C4.774,52.629-2.2,45.985-8.65,39.017c-5.277-5.7-5.424-13.62-5.522-21.074-.016-1.273,1.588-2.767,2.755-3.819C-6.443,9.649-2.8,4.43-1.391-2.218c.8-3.815,3.025-5.76,7.123-5.539,10.238.553,20.538.5,30.711,1.609,6.841.745,7.262,2.022,7.315,9.084.053,7.037.012,14.078.012,21.115Z" transform="translate(14.172 7.774)"/>
    </g>
    <g id="Group_99" data-name="Group 99" transform="translate(170.659 268.531)">
      <path id="Path_212" data-name="Path 212" class="cls-3" d="M4.268,81.562C3.6,72.961,3.216,65.793,2.454,58.67c-1.2-11.209-3.209-22.36-3.787-33.593-.332-6.513,1.154-13.194,2.37-19.695,1.99-10.6,4.429-21.115,7.27-31.747.929,5.236,1.572,10.545,2.841,15.7,3.25,13.19,7.377,26.2,10.054,39.5C25.191,48.661,19.476,65.9,4.268,81.562" transform="translate(1.38 26.364)"/>
    </g>
    <g id="Group_100" data-name="Group 100" transform="translate(167.87 365.995)">
      <path id="Path_213" data-name="Path 213" class="cls-3" d="M15.651,0,26.393,8.855c-1.47,12.416-3.668,25.868-4.433,39.4-.471,8.335.942,16.829,2.063,25.18,1.76,13.112.242,26.011-1.625,38.931-.483,3.369-.864,6.763-1.629,10.066-.307,1.314-1.535,2.411-2.342,3.607l-1.392-.7c.352-5.477.327-11.008,1.13-16.42C21.19,88.5,17.8,69.167,8.941,50.655,4.185,40.72-.49,30.748-5.059,21.095,1.9,14,8.995,6.779,15.651,0" transform="translate(5.059)"/>
    </g>
    <g id="Group_101" data-name="Group 101" transform="translate(66.452 365.284)">
      <path id="Path_214" data-name="Path 214" class="cls-3" d="M0,5.918c7.074,1.441,8.765-3.9,10.8-7.831Q21.476,8.98,31.7,19.419C25.013,35.63,17.255,52.357,11.2,69.678c-6.222,17.791-1.879,36.36-.839,54.622-.426.192-.851.385-1.273.577-.843-1.023-2.247-1.945-2.448-3.078-3.647-20.563-5.608-40.99-1.625-61.975C6.877,50,4.982,39.356,4.04,29.15c-.7-7.659-2.6-15.216-4.04-23.232" transform="translate(0 1.913)"/>
    </g>
    <g id="Group_102" data-name="Group 102" transform="translate(73.057 268.629)">
      <path id="Path_215" data-name="Path 215" class="cls-3" d="M10.416,0c2.026,9.309,4.524,20.006,6.624,30.776,1.294,6.644,2.849,13.431,2.7,20.116-.184,7.872-2.387,15.679-3.177,23.567C15.5,85.1,14.944,95.8,14.092,107.529,8.656,101.471,2.687,96.972,1.664,88.813,1.373,86.475-.195,84.326-.915,82-5.287,67.89-3.208,54.078.608,40.171,4.357,26.527,7.35,12.682,10.416,0" transform="translate(3.367)"/>
    </g>
    <g id="Group_103" data-name="Group 103" transform="translate(134.288 222.567)">
      <path id="Path_216" data-name="Path 216" class="cls-1" d="M0,53.554V-13.587c8.932-1.621,17.431-6.075,26.58-2.149,3.3,27.6-10.308,48.936-24.992,69.875-.532-.192-1.06-.389-1.588-.585" transform="translate(0 17.311)"/>
    </g>
    <g id="Group_104" data-name="Group 104" transform="translate(105.386 222.882)">
      <path id="Path_217" data-name="Path 217" class="cls-1" d="M20.337,2.484V71.336C11.556,64.291,8.166,54.347,3.516,45.153A93.35,93.35,0,0,1-6.571,4.277C-6.645.63-5.257-1.048-1.83-.774,2.98-.389,7.769.257,12.551.921c2.387.327,4.736.937,7.786,1.564" transform="translate(6.574 0.803)"/>
    </g>
    <g id="Group_105" data-name="Group 105" transform="translate(86.707 215.886)">
      <path id="Path_218" data-name="Path 218" class="cls-1" d="M13.412,3.907C10.084,31.54,22.7,54.767,37.148,77.913,26.385,76.579,17.875,71.1,11,63.729,5.749,58.1,2.024,51.042-2.225,44.517c-4.053-6.231-.995-12.969-1.134-19.486-.164-7.9-.6-15.806-.888-23.711-.037-.958.074-1.924.1-2.583l17.558,5.17" transform="translate(4.335 1.263)"/>
    </g>
    <g id="Group_106" data-name="Group 106" transform="translate(137.694 215.458)">
      <path id="Path_219" data-name="Path 219" class="cls-1" d="M0,61.138C6.873,48.656,13.738,37.091,19.707,25.084,25.934,12.562,25-1.222,24.595-13.732c6.284-2.256,11.8-4.241,16.78-6.03,0,3.742-.111,8.47.029,13.19.229,7.88.753,15.757.876,23.641a17.285,17.285,0,0,1-1.335,7.537C33.491,40,22.573,52.087,6.665,59.124A60.146,60.146,0,0,1,0,61.138" transform="translate(0 19.762)"/>
    </g>
    <g id="Group_107" data-name="Group 107" transform="translate(44.064 99.216)">
      <path id="Path_220" data-name="Path 220" class="cls-3" d="M.357,37.2C.226,27.189-.479,18.113.127,9.127c.9-13.4,11.045-18.082,21.582-20.3a32.556,32.556,0,0,1,21,2.08c-2.137,4.745-3.2,10.488-6.579,13.98-10.173,10.484-21.246,20.1-32,30.023A30.049,30.049,0,0,1,.357,37.2" transform="translate(0.115 12.025)"/>
    </g>
    <g id="Group_108" data-name="Group 108" transform="translate(179.032 99.345)">
      <path id="Path_221" data-name="Path 221" class="cls-3" d="M31.593,36.907c-5.359-4.458-10.6-8.544-15.519-12.977C10.445,18.853,4.542,13.92-.2,8.079-4.227,3.121-6.777-3.044-10.212-9.086c13.071-4.728,24.235-3.467,34.694,3.095,5.338,3.349,8.392,8.2,8.118,14.954-.127,3.111,1.449,6.3,1.261,9.391-.368,6.05-1.433,12.064-2.268,18.553" transform="translate(10.212 11.93)"/>
    </g>
    <g id="Group_109" data-name="Group 109" transform="translate(181.997 261.871)">
      <path id="Path_222" data-name="Path 222" class="cls-3" d="M0,0C22.012,34.4,24.656,70.993,19.318,108.962c-6.448.95-12.826-5.645-10.353-11.18,7.176-16.06,5.977-31.955,1.236-48.433C6.1,35.1,3.5,20.419.3,5.911A40.721,40.721,0,0,1,0,0"/>
    </g>
    <g id="Group_110" data-name="Group 110" transform="translate(144.5 278.462)">
      <path id="Path_223" data-name="Path 223" class="cls-3" d="M9.24,59.634C4.336,52.536,1.331,46.514.3,39.6a3.023,3.023,0,0,0-.479-1.371C-5.558,31.15-2.3,25.37,2.015,19.152c8.773-12.617,17.018-25.6,25.479-38.428.4.139.794.278,1.191.422C22.316,6.854,15.946,32.567,9.24,59.634" transform="translate(2.987 19.276)"/>
    </g>
    <g id="Group_111" data-name="Group 111" transform="translate(63.23 261.958)">
      <path id="Path_224" data-name="Path 224" class="cls-3" d="M1.71,83.118C-.685,62.155-1.749,41.641,1.415,21.128,3.667,6.525,9.926-6.681,16.5-19.723c1.212-2.411,2.534-4.765,3.807-7.144.426.119.851.229,1.273.344C19.689-16.608,18-6.656,15.862,3.2c-2.78,12.8-5.9,25.524-8.916,38.272-2.133,9.01.643,17.513,3.533,25.672,2.968,8.384.856,13.706-8.769,15.974" transform="translate(0.553 26.867)"/>
    </g>
    <g id="Group_112" data-name="Group 112" transform="translate(90.877 278.196)">
      <path id="Path_225" data-name="Path 225" class="cls-3" d="M.486,0C4.678,6.3,8.894,12.576,13.053,18.892c4.994,7.59,9.628,15.433,15.012,22.728C31.52,46.3,32.408,50.484,29.8,55.764c-3.541,7.152-6.64,14.524-11.2,21.864-3.3-12.723-6.763-25.4-9.862-38.174C5.582,26.466,2.79,13.39-.157.348L.486,0" transform="translate(0.157)"/>
    </g>
    <g id="Group_113" data-name="Group 113" transform="translate(58.264 377.98)">
      <path id="Path_226" data-name="Path 226" class="cls-3" d="M5.141,0C8.977,16.154,11.016,31.255,10,46.6,9.329,56.792,7.286,66.957,7.376,77.125s2.067,20.329,3.218,30.49c.176,1.56.34,3.119.544,5.011H4.376c.282-3,1.023-5.862.733-8.621Q3.248,86.381.867,68.815C-2.1,46.934-3.693,25.131,3.27,3.631A30.175,30.175,0,0,1,5.141,0" transform="translate(1.662)"/>
    </g>
    <g id="Group_114" data-name="Group 114" transform="translate(195.789 378.019)">
      <path id="Path_227" data-name="Path 227" class="cls-3" d="M3.988,85.111H-1.289C-.552,78.962-.012,73.055.885,67.2c2.2-14.291,1.531-28.451-.02-42.82C-.364,13.008.455,1.345,1.106-10.15,1.441-15.979,3.415-21.718,5.6-27.511c1.613,6.587,3.918,13.092,4.708,19.773,2.546,21.553-.356,42.832-3.824,64.107-1.5,9.223-1.666,18.671-2.5,28.742" transform="translate(1.289 27.511)"/>
    </g>
    <g id="Group_115" data-name="Group 115" transform="translate(167.283 393.079)">
      <path id="Path_228" data-name="Path 228" class="cls-3" d="M0,0C21.16,40.049,25.577,49.894,21.381,87.585c-2.059-8.363-4-17.595-6.677-26.6-1.506-5.08-4.012-9.9-6.443-14.651-3.5-6.841-6.48-13.669-6.636-21.615C1.461,16.469.573,8.241,0,0"/>
    </g>
    <g id="Group_116" data-name="Group 116" transform="translate(76.689 392.971)">
      <path id="Path_229" data-name="Path 229" class="cls-3" d="M16.92,0c-1.953,13.239,1.056,26.977-4.569,39.623-3.095,6.951-7.221,13.526-9.583,20.7C-.282,69.6-2.034,79.295-4.2,88.219c-.942-14.631-3.033-29.995,1.781-45.186A221.714,221.714,0,0,1,16.92,0" transform="translate(5.469)"/>
    </g>
    <g id="Group_117" data-name="Group 117" transform="translate(21.743 189.919)">
      <path id="Path_230" data-name="Path 230" class="cls-3" d="M0,59.241c6.489-26.5,4.528-55.212,21.8-78.39C26.6-11.895,27.182-3.368,23.8,5.209c-4.675,11.88-10.017,23.5-14.827,35.325C6.734,46.06,5.093,51.828,3.115,57.465a17.305,17.305,0,0,1-1.437,2.628C1.118,59.81.557,59.524,0,59.241" transform="translate(0 19.149)"/>
    </g>
    <g id="Group_118" data-name="Group 118" transform="translate(219.169 189.877)">
      <path id="Path_231" data-name="Path 231" class="cls-3" d="M19.465,60.213C17.852,59.3,16.882,59.1,16.682,58.6,9.706,41.046,2.726,23.5-4.074,5.885-7.533-3.072-6.984-11.828-2.162-19.463c3.078,5.346,7.037,10.7,9.37,16.686,2.44,6.255,3.594,13.063,4.822,19.723,2.579,13.98,4.835,28.021,7.434,43.266" transform="translate(6.292 19.463)"/>
    </g>
    <g id="Group_119" data-name="Group 119" transform="translate(114.057 69.014)">
      <path id="Path_232" data-name="Path 232" class="cls-3" d="M0,.167C17.394,17.082,22.167,15.989,38.71-.054c-1.134,2.166-2.149,4.4-3.431,6.48A31.3,31.3,0,0,0,30.6,26.944c.344,3-.733,4.315-3.729,4.99-2.616.589-5.027,2.116-7.733,3.32-1.613-.884-3.525-2.743-5.555-2.882-5.547-.385-6.03-3.6-5.543-7.942.9-8.077-2.69-14.795-6.656-21.39C.843,2.132.458,1.125,0,.167" transform="translate(0 0.054)"/>
    </g>
    <g id="Group_120" data-name="Group 120" transform="translate(207.28 206.161)">
      <path id="Path_233" data-name="Path 233" class="cls-3" d="M23.633,47.958c-1.4-1.171-3.259-2.076-4.11-3.562C14.868,36.27,10.856,27.747,5.878,19.834-.884,9.084-4.434-2.71-7.639-14.774c7.4-1.854,8.973-.307,11.479,6.284C8.773,4.5,14.59,17.141,19.817,30.019c2.166,5.33,3.75,10.893,5.6,16.354q-.89.792-1.785,1.584" transform="translate(7.639 15.502)"/>
    </g>
    <g id="Group_121" data-name="Group 121" transform="translate(26.28 206.165)">
      <path id="Path_234" data-name="Path 234" class="cls-3" d="M25.074.247c-3.3,12.7-6.992,24.759-14.091,35.693C6.153,43.374,2.3,51.451-1.719,59.377-2.98,61.866-4.032,63.6-8.1,61.894c2.125-6.19,4-12.6,6.5-18.745,3.426-8.392,7.41-16.555,11-24.886A114.255,114.255,0,0,0,13.555,6.879C15.724-.1,16.461-.645,25.074.247" transform="translate(8.105 0.08)"/>
    </g>
    <g id="Group_122" data-name="Group 122" transform="translate(92.133 321.732)">
      <path id="Path_235" data-name="Path 235" class="cls-3" d="M4.944,0c.385,1.453.827,2.9,1.15,4.368C8.236,14.16,9.14,24.448,12.841,33.6c3.316,8.2-.258,13.82-3.066,20.276-1.159,2.669-2.268,5.363-3.508,8.306A60.8,60.8,0,0,1,.347,57.975c-.966-.864-2.08-2.44-1.932-3.533C-.435,45.874,1.125,37.363,2.3,28.8A121.927,121.927,0,0,0,3.25,15.748c.16-5.154.037-10.316.037-15.47C3.839.184,4.392.09,4.944,0" transform="translate(1.598)"/>
    </g>
    <g id="Group_123" data-name="Group 123" transform="translate(158.092 321.84)">
      <path id="Path_236" data-name="Path 236" class="cls-3" d="M6.586,46.922c-2.837-6.529-5.572-12.69-8.167-18.909A6.006,6.006,0,0,1-2,24.407c1.6-5.85,3.717-11.569,5.088-17.468C4.781-.34,5.923-7.745,7.3-15.1c.409-.025.819-.045,1.228-.07.164,1.441.368,2.874.487,4.319.8,9.69,1.457,19.388,2.411,29.061.52,5.273,1.4,10.525,2.329,15.744,1.1,6.112-2.014,9.792-7.172,12.965" transform="translate(2.129 15.167)"/>
    </g>
    <g id="Group_124" data-name="Group 124" transform="translate(136.762 267.87)">
      <path id="Path_237" data-name="Path 237" class="cls-3" d="M30.881,0C21.02,19.359,8.038,36.753-3.432,55.109c-.426-.074-.856-.143-1.285-.217C-6.609,46.9-8.5,38.907-9.982,32.639c8.593-5.064,16.563-8.646,23.15-13.951C19.791,13.354,25.036,6.3,30.881,0" transform="translate(9.982)"/>
    </g>
    <g id="Group_125" data-name="Group 125" transform="translate(134.033 163.593)">
      <path id="Path_238" data-name="Path 238" class="cls-1" d="M18.6,17.779C-7.846,15.262-6.56,12.216-5.643-5.747c7.925,1.036,15.9,2.08,24.247,3.173Z" transform="translate(6.013 5.747)"/>
    </g>
    <g id="Group_126" data-name="Group 126" transform="translate(90.366 272.743)">
      <path id="Path_239" data-name="Path 239" class="cls-3" d="M30.358,19.32c-2.047,8.376-4.008,16.4-6.308,25.835C12.162,27.106,1.174,10.433-9.813-6.245.8,6.29,12.964,16.037,30.358,19.32" transform="translate(9.813 6.245)"/>
    </g>
    <g id="Group_127" data-name="Group 127" transform="translate(107.893 163.735)">
      <path id="Path_240" data-name="Path 240" class="cls-1" d="M0,17.894V-2.886c7.5-.9,15.757-1.891,24.161-2.9,0,3.991.352,8.842-.111,13.616-.377,3.873-3.406,6.194-7.029,7.017C11.708,16.056,6.284,16.793,0,17.894" transform="translate(0 5.784)"/>
    </g>
    <g id="Group_128" data-name="Group 128" transform="translate(134.058 204.729)">
      <path id="Path_241" data-name="Path 241" class="cls-1" d="M19.753,0c.512,6.272.933,11.405,1.412,17.23-8.49-2.313-16.023-1.109-23.441,1.445-2.776.954-4.045-.385-4.077-3.066-.061-4.552-.016-9.113-.016-13.9C2.383,1.134,10.853.581,19.753,0" transform="translate(6.385)"/>
    </g>
    <g id="Group_129" data-name="Group 129" transform="translate(133.929 184.075)">
      <path id="Path_242" data-name="Path 242" class="cls-1" d="M.071,0c6.411,1.552,12.052,3.562,17.84,4.167,8.883.921,6.918.61,8.453,8.568a27.847,27.847,0,0,1,.053,5.465c-7.672.909-14.881,2.01-22.135,2.395-1.322.07-3.877-2.685-4.02-4.3C-.236,10.66.071,4.945.071,0" transform="translate(0.023)"/>
    </g>
    <g id="Group_130" data-name="Group 130" transform="translate(106.213 183.914)">
      <path id="Path_243" data-name="Path 243" class="cls-1" d="M.381,13.949C-.88,2.287-.536,2,10.558-.243,15.667-1.279,20.629-3.031,25.84-4.509c0,5.412.229,11.487-.2,17.521-.082,1.159-2.776,3.115-4.176,3.042-6.906-.381-13.779-1.318-21.087-2.1" transform="translate(0.123 4.509)"/>
    </g>
    <g id="Group_131" data-name="Group 131" transform="translate(106.228 204.677)">
      <path id="Path_244" data-name="Path 244" class="cls-1" d="M0,0C9.018.614,17.222,1.171,25.606,1.74V18.585C17.128,17.566,8.912,16.575,0,15.507Z"/>
    </g>
    <g id="Group_132" data-name="Group 132" transform="translate(83.209 72.596)">
      <path id="Path_245" data-name="Path 245" class="cls-3" d="M22.16,0a30.507,30.507,0,0,1,7.389,24.644c-.119,1.011-2.35,2.509-3.631,2.542-8.941.209-17.889.16-26.83.041a14.375,14.375,0,0,1-6.251-1.756C-3.581,24.28-.069,22.761,3.6,21.959,14.787,19.519,21.129,12.834,22.16,0" transform="translate(7.163)"/>
    </g>
    <g id="Group_133" data-name="Group 133" transform="translate(146.481 72.348)">
      <path id="Path_246" data-name="Path 246" class="cls-3" d="M27.833,20.363H-8.343C-10.12,11.074-8.425,2.416-1.384-6.582c.761,19.76,15.957,21.566,29.4,25.508l-.184,1.437" transform="translate(8.997 6.582)"/>
    </g>
    <g id="Group_134" data-name="Group 134" transform="translate(32.914 208.003)">
      <path id="Path_247" data-name="Path 247" class="cls-3" d="M21.486,0c1.785,10.013-.385,19.3-4.6,27.944C12.914,36.09,7.927,43.741,3.568,51.7,1.676,55.159.227,58.851-1.652,62.928c-.86-.229-2.665-.708-5.293-1.4C1.263,40.274,18.293,23.305,21.486,0" transform="translate(6.945)"/>
    </g>
    <g id="Group_135" data-name="Group 135" transform="translate(204.032 208.605)">
      <path id="Path_248" data-name="Path 248" class="cls-3" d="M.284.167C4.922,10.827,9.507,22.2,14.8,33.24c3.7,7.725,8.4,14.971,12.588,22.47a41.125,41.125,0,0,1,1.912,4.8c-2.026.708-3.758,1.314-4.343,1.515-4.831-8.515-9.325-16.641-14.017-24.648C4.611,26.572.366,15.138-.088,2.493A7.723,7.723,0,0,1,.141.56C.243.1.489-.328.284.167" transform="translate(0.092 0.054)"/>
    </g>
    <g id="Group_136" data-name="Group 136" transform="translate(161.336 186.425)">
      <path id="Path_249" data-name="Path 249" class="cls-1" d="M.047,3.407C5.009,2.04,9.549.84,14.056-.474c3.189-.933,6.292-1.216,8.294,1.981,1.457,2.333-.7,9.809-3.349,10.926A109.957,109.957,0,0,1,4.7,17.3c-3.136.843-4.937-.643-4.7-4.237.2-3.087.041-6.2.041-9.661" transform="translate(0.015 1.101)"/>
    </g>
    <g id="Group_137" data-name="Group 137" transform="translate(40.605 523.513)">
      <path id="Path_250" data-name="Path 250" class="cls-3" d="M24.244,1.27c.454,7.377-1.707,10.12-8.032,9.87C9.728,10.886,3.268,9.969-3.2,9.376-6.274,9.1-8.522,7.57-7.646,4.426-6.86,1.606-5.595-1.329-1.092-.138,2.9.918,7.17,1.012,11.333,1.221c4.18.217,8.38.049,12.912.049" transform="translate(7.837 0.411)"/>
    </g>
    <g id="Group_138" data-name="Group 138" transform="translate(193.926 523.99)">
      <path id="Path_251" data-name="Path 251" class="cls-3" d="M0,5.55V.007c4.847,0,9.669.225,14.459-.082,3.459-.221,6.857-1.4,10.32-1.683C26.6-1.9,29.159-1.634,30.2-.484a6.229,6.229,0,0,1,.987,5.592c-.6,1.261-3.234,1.85-5.068,2.17-3.021.524-6.345-.033-9.145.97-6.3,2.26-11.626.491-16.968-2.7" transform="translate(0 1.794)"/>
    </g>
    <g id="Group_139" data-name="Group 139" transform="translate(82.739 187.89)">
      <path id="Path_252" data-name="Path 252" class="cls-1" d="M15.442,12.433c-5.158-1.3-9.788-2.133-14.172-3.664A8.928,8.928,0,0,1-4.974.373C-5.2-3-3.246-4.269-.593-3.979c5.58.6,11.11,1.719,17.308,2.726-.1,1.9-.151,4.106-.34,6.3-.184,2.071-.516,4.131-.933,7.389" transform="translate(4.991 4.019)"/>
    </g>
    <g id="Group_140" data-name="Group 140" transform="translate(15.816 276.309)">
      <path id="Path_253" data-name="Path 253" class="cls-3" d="M10.7,0c1.511,7,2.9,13.481,4.343,20.161-5.981,2.145-11.458.622-16.735-1.523C-4.823,17.365-3.517,9.432.069,7.295c1.666-.991,3.443-1.8,5.048-2.878C6.664,3.381,8.056,2.116,10.7,0" transform="translate(3.459)"/>
    </g>
    <g id="Group_141" data-name="Group 141" transform="translate(231.969 277.065)">
      <path id="Path_254" data-name="Path 254" class="cls-3" d="M3.471,0c4.073,2.493,7.119,4.2,9.976,6.181,1.285.9,2.784,2.178,3.169,3.566,2.178,7.827,2.108,8.032-6.227,9.743-3.508.72-7.2.532-11.511.8C.6,12.674,2.063,6.227,3.471,0" transform="translate(1.122)"/>
    </g>
    <g id="Group_142" data-name="Group 142" transform="translate(83.787 176.575)">
      <path id="Path_255" data-name="Path 255" class="cls-1" d="M16.013,8.357c-8-.18-16.039,1.527-21.189-6.779C-2.838-1.7-.079-3.445,4.489-2.4c2.907.667,6.136.172,9.19-.123,4.053-.393,4.88,1.437,3.893,4.908-.528,1.854-.978,3.729-1.56,5.969" transform="translate(5.176 2.701)"/>
    </g>
    <g id="Group_143" data-name="Group 143" transform="translate(162.331 202.407)">
      <path id="Path_256" data-name="Path 256" class="cls-1" d="M13.848,0C14.511,8.032,5.329,16.923-2.22,15.626a3.6,3.6,0,0,1-2.1-2.587,74.517,74.517,0,0,1-.1-8.114C1.5,3.328,7.5,1.711,13.848,0" transform="translate(4.476)"/>
    </g>
    <g id="Group_144" data-name="Group 144" transform="translate(85.712 202.345)">
      <path id="Path_257" data-name="Path 257" class="cls-1" d="M14.051,11.15C-.445,10.7-6.119,5.267-4.171-3.6c2.87.843,5.7,1.83,8.6,2.489,2.841.651,5.76.974,9.047,1.506.2,3.7.389,7.209.577,10.758" transform="translate(4.542 3.604)"/>
    </g>
    <g id="Group_145" data-name="Group 145" transform="translate(160.525 176.208)">
      <path id="Path_258" data-name="Path 258" class="cls-1" d="M0,9.87C.532,5.244.9,2.051,1.343-1.806,8.4-.713,15.879-6.923,23.023.569,16.735,7.377,8.245,6.922,0,9.87" transform="translate(0 3.19)"/>
    </g>
    <g id="Group_146" data-name="Group 146" transform="translate(90.964 165.073)">
      <path id="Path_259" data-name="Path 259" class="cls-1" d="M6.81,7.989c-1.785-.143-3.672.029-5.322-.516C.055,7-2.094,5.794-2.18,4.771-2.335,2.949-1.627-.191-.456-.637,2.9-1.922,6.859-3.056,10.2-2.381c1.625.327,2.575,4.773,3.443,7.475.2.6-1.089,2.247-1.949,2.481-1.519.413-3.238.119-4.872.119l-.012.295" transform="translate(2.201 2.582)"/>
    </g>
    <g id="Group_147" data-name="Group 147" transform="translate(57.423 439.609)">
      <path id="Path_260" data-name="Path 260" class="cls-3" d="M0,0C1.728,16.923,8.6,33.466,4.56,50.9c-.131.557-1.032.942-1.94,1.728C1.728,34.71.864,17.357,0,0"/>
    </g>
    <g id="Group_148" data-name="Group 148" transform="translate(203.85 439.323)">
      <path id="Path_261" data-name="Path 261" class="cls-3" d="M4.084.074Q2.714,26.049,1.353,52.027c-.25.2-.5.389-.737.581-.684-1.994-2.018-4.016-1.932-5.981C-.96,38.219-.432,29.8.506,21.435,1.312,14.247,2.757,7.128,3.916-.024a1.785,1.785,0,0,1,.168.1" transform="translate(1.32 0.024)"/>
    </g>
    <g id="Group_149" data-name="Group 149" transform="translate(161.346 164.616)">
      <path id="Path_262" data-name="Path 262" class="cls-1" d="M.373,8.639A29.03,29.03,0,0,1,.115,4.217c.295-2.448-1.744-5.883,2.5-6.8C7.042-3.536,13.08-1.129,13.764,2.326c.262,1.326-1.494,4.016-2.886,4.5-3.123,1.1-6.6,1.212-10.5,1.809" transform="translate(0.121 2.792)"/>
    </g>
    <g id="Group_150" data-name="Group 150" transform="translate(240.608 271.462)">
      <path id="Path_263" data-name="Path 263" class="cls-3" d="M11.864,6.488C8.651,10.447,5.724,8.969,2.977,7.753.934,6.844-1.371,5.89-2.726,4.269-3.77,3.025-3.512.7-3.835-1.151-2-1.441.4-2.6,1.573-1.847,5.155.45,8.266,3.487,11.864,6.488" transform="translate(3.835 2.097)"/>
    </g>
    <g id="Group_151" data-name="Group 151" transform="translate(11.564 269.949)">
      <path id="Path_264" data-name="Path 264" class="cls-3" d="M8.377,0c1.531,1.179,3,1.74,3.169,2.571.327,1.556.512,4.208-.319,4.745A62.675,62.675,0,0,1,.488,12.629c-.766.307-2.628-.684-3.1-1.56-.356-.659.377-2.432,1.15-3.111C1.606,5.256,4.885,2.788,8.377,0" transform="translate(2.708)"/>
    </g>
    <g id="Group_152" data-name="Group 152" transform="translate(231.181 298.726)">
      <path id="Path_265" data-name="Path 265" class="cls-3" d="M2.221,12.316C1.272,7.039.318,1.767-.718-3.981c3.426.327,6.4.614,9.456.909q2.192,10.242,4.4,20.55l-2.076.516c-.987-3.676-1.985-7.348-2.952-11.028-.655-2.5-1.13-5.06-1.973-7.491-.266-.757-1.482-1.187-2.26-1.764A7.23,7.23,0,0,0,2.876.072c-.1,4.036-.045,8.077-.045,12.117-.2.041-.409.082-.61.127" transform="translate(0.718 3.981)"/>
    </g>
    <g id="Group_153" data-name="Group 153" transform="translate(21.705 298.63)">
      <path id="Path_266" data-name="Path 266" class="cls-3" d="M0,16.322Q2.174,6.092,4.343-4.142c3.009-.364,5.866-.712,9.375-1.134-.97,5.674-1.912,11.188-2.853,16.7l-.692-.123c0-3.7.1-7.4-.057-11.094A14.671,14.671,0,0,0,8.941-3.483C8.032-2.374,6.656-1.4,6.308-.143,5.048,4.361,4.18,8.966,3.07,13.514a22.435,22.435,0,0,1-1.326,3.271C1.163,16.629.581,16.474,0,16.322" transform="translate(0 5.276)"/>
    </g>
    <g id="Group_154" data-name="Group 154" transform="translate(62.796 496.119)">
      <path id="Path_267" data-name="Path 267" class="cls-3" d="M0,19.694C3.86,10.643,7.725,1.6,11.118-6.366a41.577,41.577,0,0,1-6.6,24.443C3.676,19.4,1.822,20.059.438,21.025Z" transform="translate(0 6.366)"/>
    </g>
    <g id="Group_155" data-name="Group 155" transform="translate(51.338 492.899)">
      <path id="Path_268" data-name="Path 268" class="cls-3" d="M11.091,0c.987,13.116-7.725,21-14.676,29.769C1.217,20.03,6.019,10.287,11.091,0" transform="translate(3.585)"/>
    </g>
    <g id="Group_156" data-name="Group 156" transform="translate(55.458 492.812)">
      <path id="Path_269" data-name="Path 269" class="cls-3" d="M0,22.934C5.314,12.949,13.8,4.88,12.7-7.356c.635-.02,1.269-.041,1.9-.057.282,1.461.991,2.992.782,4.384C13.964,6.637,4.814,22.389,0,22.934" transform="translate(0 7.413)"/>
    </g>
    <g id="Group_157" data-name="Group 157" transform="translate(196.799 492.959)">
      <path id="Path_270" data-name="Path 270" class="cls-3" d="M1.281,0C-.925,11.737,9.444,19.142,11.515,29.344,2.53,20.776-3.529,3.582,1.281,0" transform="translate(0.414)"/>
    </g>
    <g id="Group_158" data-name="Group 158" transform="translate(192.749 495.942)">
      <path id="Path_271" data-name="Path 271" class="cls-3" d="M0,0C3.48,8.253,7.426,17.607,11.532,27.346.815,20.239.225,9.461,0,0"/>
    </g>
    <g id="Group_159" data-name="Group 159" transform="translate(69.936 495.181)">
      <path id="Path_272" data-name="Path 272" class="cls-3" d="M0,21.179c2.481-9.4,4.912-18.614,7.344-27.821-.3-.07-.606-.135-.9-.2C6.927-2.724,7.2,1.44,7.954,5.513c1.146,6.149-3.93,10.034-5.3,15.257-.111.434-2.2.348-2.657.409" transform="translate(0 6.846)"/>
    </g>
    <g id="Group_160" data-name="Group 160" transform="translate(201.041 493.639)">
      <path id="Path_273" data-name="Path 273" class="cls-3" d="M.173,0C3.862,8.065,7.632,16.3,11.337,24.386,6.911,25.459-1.554,7.975.173,0" transform="translate(0.056)"/>
    </g>
    <g id="Group_161" data-name="Group 161" transform="translate(35.275 272.76)">
      <path id="Path_274" data-name="Path 274" class="cls-3" d="M0,15.431V-4.988C5.076-4.313,5.924-3.2,4.54,2.557,3.5,6.892,2.211,11.166,1.028,15.468L0,15.431" transform="translate(0 4.988)"/>
    </g>
    <g id="Group_162" data-name="Group 162" transform="translate(189.252 497.449)">
      <path id="Path_275" data-name="Path 275" class="cls-3" d="M.676,0C2.42,7.5,4.43,16.146,6.44,24.791l-1.224.753c-1.326-2.4-3.083-4.667-3.877-7.229A36.145,36.145,0,0,1-.213,8.535,56.117,56.117,0,0,1,.676,0" transform="translate(0.218)"/>
    </g>
    <g id="Group_163" data-name="Group 163" transform="translate(226.149 272.305)">
      <path id="Path_276" data-name="Path 276" class="cls-3" d="M3.276,15.815c-1.355-4.3-2.923-8.552-4-12.924-1.122-4.573.544-7.676,4.933-8V15.479Z" transform="translate(1.059 5.112)"/>
    </g>
    <g id="Group_164" data-name="Group 164" transform="translate(253.565 291.561)">
      <path id="Path_277" data-name="Path 277" class="cls-3" d="M5.751,18.145C3.327,10.137-3.329,3.755-1.565-5.865Q3.028,5.777,7.625,17.42c-.626.246-1.253.483-1.875.725" transform="translate(1.859 5.865)"/>
    </g>
    <g id="Group_165" data-name="Group 165" transform="translate(13.031 297.621)">
      <path id="Path_278" data-name="Path 278" class="cls-3" d="M3.914,0C5.477.413,6.7.729,7.319.892Q3.789,12.1.233,23.387c-.5-.139-1-.274-1.5-.418L3.914,0" transform="translate(1.265)"/>
    </g>
    <g id="Group_166" data-name="Group 166" transform="translate(245.084 297.401)">
      <path id="Path_279" data-name="Path 279" class="cls-3" d="M2.546,0c1.736,7.852,3.41,15.441,5.088,23.035-.467.139-.929.274-1.392.418C3.9,16.031,1.555,8.613-.823,1.085-.4.946.921.524,2.546,0" transform="translate(0.823)"/>
    </g>
    <g id="Group_167" data-name="Group 167" transform="translate(-0.002 282.509)">
      <path id="Path_280" data-name="Path 280" class="cls-3" d="M6.862,0c1.838.982,3.5,1.867,5.109,2.73C7.8,6.075,3.493,9.547-.822,13.014l-1.4-1.273C.766,7.884,3.747,4.028,6.862,0" transform="translate(2.218)"/>
    </g>
    <g id="Group_168" data-name="Group 168" transform="translate(3.696 291.493)">
      <path id="Path_281" data-name="Path 281" class="cls-3" d="M6.883,0c.839,2.612,1.973,4.229,1.56,5.154C5.582,11.52,2.4,17.746-.678,24.018c-.516-.225-1.032-.458-1.547-.688C.624,16.039,3.469,8.752,6.883,0" transform="translate(2.225)"/>
    </g>
    <g id="Group_169" data-name="Group 169" transform="translate(252.762 283.396)">
      <path id="Path_282" data-name="Path 282" class="cls-3" d="M9.575,9.206-3.1-.946C1.666-3.824,1.707-3.852,5.113.335c2,2.46,3.848,5.039,5.76,7.565-.434.434-.864.872-1.3,1.306" transform="translate(3.095 2.976)"/>
    </g>
    <g id="Group_170" data-name="Group 170" transform="translate(180.406 171.721)">
      <path id="Path_283" data-name="Path 283" class="cls-1" d="M3.8,11.747C2.177,10.85,1.055,10.232-.82,9.2,5.632,5.827,3.859,2.536-1.229-.624.793-1.914,2.251-2.843,3.737-3.8c.9,2.039,1.736,3.922,2.939,6.64-.688,2.129-1.711,5.3-2.874,8.9" transform="translate(1.229 3.797)"/>
    </g>
    <g id="Group_171" data-name="Group 171" transform="translate(85.168 158.257)">
      <path id="Path_284" data-name="Path 284" class="cls-1" d="M1.262,0Q5.229,2.315,9.192,4.634c.025.479.049.954.078,1.429-2.407.131-5.142,1.011-7.1.143C.767,5.584.411,2.612-.408.688L1.262,0" transform="translate(0.408)"/>
    </g>
    <g id="Group_172" data-name="Group 172" transform="translate(159.861 33.108)">
      <path id="Path_285" data-name="Path 285" class="cls-3" d="M0,13.538C.737,7.664,1.457,1.883,2.243-4.376,5.109,1.036,3.987,8.924,0,13.538" transform="translate(0 4.376)"/>
    </g>
    <g id="Group_173" data-name="Group 173" transform="translate(80.842 164.674)">
      <path id="Path_286" data-name="Path 286" class="cls-1" d="M0,2.651C1.31,1.2,2.26.15,3.173-.857,8.032.4,8.408,3.986,8.028,9.058,5.158,6.77,2.788,4.878,0,2.651" transform="translate(0 0.857)"/>
    </g>
    <g id="Group_174" data-name="Group 174" transform="translate(102.759 33.178)">
      <path id="Path_287" data-name="Path 287" class="cls-3" d="M1.164,0c.942,6.333,1.793,12.031,2.645,17.767C-.425,13.464-1.7,6.1,1.164,0" transform="translate(0.376)"/>
    </g>
    <g id="Group_175" data-name="Group 175" transform="translate(177.245 164.302)">
      <path id="Path_288" data-name="Path 288" class="cls-1" d="M3.271,0c2.62,5.915,2,7.3-4.012,9.379C-1.531,5.42-1.065,2.194,3.271,0" transform="translate(1.057)"/>
    </g>
    <g id="Group_176" data-name="Group 176" transform="translate(80.11 170.988)">
      <path id="Path_289" data-name="Path 289" class="cls-1" d="M1.036,0c1.6,1.31,3.209,2.62,5.31,4.331C4.839,5.637,3.5,6.8,1,8.969.426,5.281.046,2.816-.335.356L1.036,0" transform="translate(0.335)"/>
    </g>
    <g id="Group_177" data-name="Group 177" transform="translate(204.436 493.899)">
      <path id="Path_290" data-name="Path 290" class="cls-3" d="M1.751,0a51.748,51.748,0,0,0,.86,6.6c.651,2.55,1.732,4.994,2.628,7.483L4.076,14.5Q1.755,7.686-.566.868.595.438,1.751,0" transform="translate(0.566)"/>
    </g>
    <g id="Group_178" data-name="Group 178" transform="translate(187.356 130.23)">
      <path id="Path_291" data-name="Path 291" class="cls-3" d="M26.887,23.562c-.639-5.739-1.945-12.056-8.392-16C11.544,3.306,5.625-2.626-.483-7.616-2.968.58-5.547,9.07-8.126,17.573l-.565,10.509c.188.585.487,1.527.9,2.812,2.366,7.41,8.06,24.869,13.5,33.388.72,1.126,2.051,2.6,3.136,2.628,3.959.123,7.929-.3,12.023-.528.491-2.616.295-6.231,1.814-8.855,6.255-10.8,5.486-22.532,4.208-33.965" transform="translate(8.691 7.616)"/>
    </g>
    <g id="Group_179" data-name="Group 179" transform="translate(169.872 150.733)">
      <path id="Path_292" data-name="Path 292" class="cls-1" d="M2.775,7.428C1.322,8.423.294,9.123-.9,9.933c8.06,4.474,8.06,4.474,10.754-6.259,1.539,3.77,3.066,7.508,4.655,11.393L15.621,3.633C15.74,2,15.969.37,15.932-1.255A2.946,2.946,0,0,0,15.5-2.4L10.938,1.947" transform="translate(0.897 2.401)"/>
    </g>
    <g id="Group_180" data-name="Group 180" transform="translate(134.079 101.629)">
      <path id="Path_293" data-name="Path 293" class="cls-3" d="M39.169,36.364c5.469-5.543,6.112-12.785,6.787-19.879a8,8,0,0,0-2.19-5.94C38.084,5.506,34.125-.434,32.508-7.847c-.573-2.608-1.8-3.959-4.622-3.905-9.952.188-19.945-.27-29.835.553-9.014.753-10.447,2.9-10.586,12.322-.184,12.6-.115,25.209-.106,37.814,0,7.639.6,8.368,7.852,10.5,10.341,3.046,20.235,1.04,30-2.587L34.338,40.8a30.9,30.9,0,0,0,4.831-4.433" transform="translate(12.661 11.754)"/>
    </g>
    <g id="Group_181" data-name="Group 181" transform="translate(42.73 129.627)">
      <path id="Path_294" data-name="Path 294" class="cls-3" d="M26.713,18.073C24.384,10.25,22.055,2.435,19.586-5.842,12.795-.066,6.187,5.993-.9,11.413A17.173,17.173,0,0,0-7.69,23.719,112.422,112.422,0,0,0-8.611,39.84,47.355,47.355,0,0,0-6.675,51.805C-4.984,57.623-2.7,63.264-.743,68.782c2.6,0,5.915-.532,8.957.156,2.861.643,4.086-.209,5.49-2.411A105.2,105.2,0,0,0,26.472,36.372c.618-2.956,2.19-11.843.242-18.3" transform="translate(8.635 5.842)"/>
    </g>
    <g id="Group_182" data-name="Group 182" transform="translate(79.085 152.494)">
      <path id="Path_295" data-name="Path 295" class="cls-1" d="M1.912.073c-.364-.3-1.363.164-2.53.6l.4,12.842A5.667,5.667,0,0,1,2.1,11.048C3.84,10,4.556,6.529,4.8,4.052,4.925,2.8,3.177,1.121,1.912.073" transform="translate(0.618 0.024)"/>
    </g>
  </g>
</svg>
