<svg xmlns="http://www.w3.org/2000/svg" xmlns:xlink="http://www.w3.org/1999/xlink" viewBox="0 0 186.626 374.04">
  <defs>
    <style>
      .cls-1 {
        fill: #ce3e33;
      }

      .cls-2 {
        clip-path: url(#clip-path);
      }

      .cls-3 {
        fill: #797979;
      }
    </style>
    <clipPath id="clip-path">
      <path id="Path_209" data-name="Path 209" class="cls-1" d="M0-130.613H186.626v374.04H0Z" transform="translate(0 130.613)"/>
    </clipPath>
  </defs>
  <g id="Group_96" data-name="Group 96" transform="translate(0 130.613)">
    <g id="Group_95" data-name="Group 95" class="cls-2" transform="translate(0 -130.613)">
      <g id="Group_27" data-name="Group 27" transform="translate(49.472 174.477)">
        <path id="Path_141" data-name="Path 141" class="cls-1" d="M28.182,14.08c0,1.6-.086,3.207.014,4.805A13.476,13.476,0,0,1,21.475,32c-7.964,4.96-16.624,7.165-25.1,2.328C-8.055,31.8-11.26,27.059-14.834,23.147c-.515-.564-.246-2.171.095-3.142,3.388-9.6,8.248-18.079,16.8-24.276C7.575-8.266,13.11-8.417,18.712-5.8c5.581,2.609,9.654,6.819,9.479,13.7-.054,2.059-.009,4.115-.009,6.177" transform="translate(15.121 7.555)"/>
      </g>
      <g id="Group_28" data-name="Group 28" transform="translate(94.049 174.481)">
        <path id="Path_142" data-name="Path 142" class="cls-1" d="M.081,14.067A54.157,54.157,0,0,0,.044,8.24c-.727-6.7,3.15-10.917,8.3-13.614,5.759-3.013,11.607-3.144,17.492,1.2C34.386,2.137,39.506,10.5,42.722,20.293a4.413,4.413,0,0,1-.387,3.259c-3.227,5.349-7.3,9.949-13.3,12.2C21.147,38.7,8.06,35.388,2.61,28.9,1.178,27.2.528,24.583.179,22.286c-.407-2.68-.095-5.475-.1-8.219" transform="translate(0.044 7.548)"/>
      </g>
      <g id="Group_29" data-name="Group 29" transform="translate(51.081 111.811)">
        <path id="Path_143" data-name="Path 143" class="cls-3" d="M17.64,36.248C13.07,31.4,9.129,26.609,4.55,22.542,1.157,19.533.65,16.01-.164,11.952-1.63,4.658-4.081-2.447-6.258-9.589c-.785-2.572-1.962-5.023-3.207-8.142,5.41,0,10.152.218,14.866-.074,3.362-.206,6.67-1.2,10.029-1.618a3.944,3.944,0,0,1,3.093.882Q24.759-10.6,30.63-2.378a5.212,5.212,0,0,1,.882,3.82c-2.775,10.281-5.175,20.713-10.473,30.112a52.519,52.519,0,0,1-3.4,4.694" transform="translate(9.465 19.449)"/>
      </g>
      <g id="Group_30" data-name="Group 30" transform="translate(94.327 111.589)">
        <path id="Path_144" data-name="Path 144" class="cls-3" d="M26.661,1.274c-1.518,4.167-3.093,8.027-4.339,11.99-2.4,7.663-5.1,15.232-5.507,23.437-.092,1.867-2.363,3.82-3.963,5.387C8.582,46.261,4.126,50.247-.674,54.694c-1.269-1.962-3.52-4.387-4.568-7.251-3.256-8.923-6.1-18-8.969-27.057a4.11,4.11,0,0,1,.687-3.121Q-7.475,8.8-1.146.535C-.6-.169.9-.894,1.557-.627,7.921,1.967,14.539,1.429,21.134,1.28c1.6-.034,3.2-.006,5.527-.006" transform="translate(14.305 0.684)"/>
      </g>
      <g id="Group_31" data-name="Group 31" transform="translate(74.506 -0.001)">
        <path id="Path_145" data-name="Path 145" class="cls-3" d="M1.285,23.354C-.316,16-1.439,8.3-.084.438c1.231-7.111,4.994-10.8,12.308-12.251,5.825-1.157,11.524-1.123,16.936,1.664,5,2.574,6.538,7.174,7.3,12.337,1.08,7.354-.1,14.439-1.578,21-4.3,0-8.119.06-11.939-.014-3.929-.08-7.855-.412-11.781-.4-3.139.006-6.28.358-9.874.587" transform="translate(0.689 12.531)"/>
      </g>
      <g id="Group_32" data-name="Group 32" transform="translate(95.827 37.103)">
        <path id="Path_146" data-name="Path 146" class="cls-3" d="M0,57.723c.934-7.494,1.956-14.528,2.66-21.6.79-7.935,1.5-15.891,1.83-23.855.123-2.927.765-4.989,3.325-6.5s3.434-3.1,1.7-6.372C5.667-7.853,4.115-15.9,3.219-24.05a2.752,2.752,0,0,1,0-.344q.03-3.286.066-6.578c2.892.043,5.79.049,8.683.158.493.02.965.478,1.867.956-4.393,6.3-2.423,12.635-.284,18.941A10.514,10.514,0,0,0,20.438-3.9c4.17,1.389,8.316,2.838,12.669,4.327-.994.5-1.873,1-2.786,1.409a11.685,11.685,0,0,0-6.7,7.529C20.178,19.8,16.664,30.252,12.474,40.406,10.745,44.61,7.245,48.1,4.5,51.873c-1.375,1.9-2.855,3.717-4.5,5.851" transform="translate(0 30.972)"/>
      </g>
      <g id="Group_33" data-name="Group 33" transform="translate(57.551 36.748)">
        <path id="Path_147" data-name="Path 147" class="cls-3" d="M21.705,57.96C13.979,48.816,7.613,39.392,4.382,28.029,2.529,21.516-.331,15.3-2.333,8.822-3.424,5.273-5.709,3.369-8.819,2c-.916-.407-1.839-.81-2.827-1.246C-5.163-2.381,3.42-1.5,7.114-9c3.227-6.558,5.558-13.571-.049-21.418a83.5,83.5,0,0,1,9.9-.656c.673.029,1.85,2.151,1.787,3.247-.564,9.473-2.417,18.7-6.592,27.28C10.677,2.5,11.023,4.2,13.8,6.25a8.716,8.716,0,0,1,3.362,5.779c.51,14.574,1.555,29.073,4.37,43.406a21.814,21.814,0,0,1,.178,2.526" transform="translate(11.646 31.099)"/>
      </g>
      <g id="Group_34" data-name="Group 34" transform="translate(127.398 305.244)">
        <path id="Path_148" data-name="Path 148" class="cls-3" d="M0,5.914A12.557,12.557,0,0,0,9.551-3.173q4.781,2.62,9.384,5.135c-1.286,4.061-2.941,8.385-4.024,12.85-2.978,12.28.458,23.4,6.9,33.763.977,1.569,3.139,2.506,4.9,3.462,2.938,1.589,3.436,3.31,1.463,6.02a17.644,17.644,0,0,1-19.625,6.83,7.116,7.116,0,0,1-4.994-8.1C4.1,54.236,4.685,51.7,5.292,49.17c.788-3.282.977-6.357-1.04-9.473-.73-1.131-.553-3.362.034-4.737C8.459,25.192,7.517,16.171.936,7.775A10.725,10.725,0,0,1,0,5.914" transform="translate(0 3.173)"/>
      </g>
      <g id="Group_35" data-name="Group 35" transform="translate(29.62 304.787)">
        <path id="Path_149" data-name="Path 149" class="cls-3" d="M6.609,3.549A46.261,46.261,0,0,0,11.9,1.361,39.873,39.873,0,0,0,16.2-1.9c1.615,4.86,4.76,8.279,9.024,9.35-1.89,4.817-3.88,9.339-5.435,14-1.721,5.155.052,10.052,1.667,14.94.481,1.463.962,3.485.335,4.648-2.291,4.23-1.352,8.376-.43,12.595.241,1.108.653,2.176.925,3.279,1.581,6.392-2.847,11.077-9.344,10-1.89-.312-3.869-.135-5.748-.487a8.717,8.717,0,0,1-3.62-1.6c-1.824-1.412-3.359-3.2-5.152-4.659C-3.881,58.289-4.342,55.525-2,54.635c8.09-3.076,9.728-10.5,12.179-17.326,4.193-11.661,1.735-22.767-3.574-33.761" transform="translate(3.546 1.904)"/>
      </g>
      <g id="Group_36" data-name="Group 36" transform="translate(37.782 254.432)">
        <path id="Path_150" data-name="Path 150" class="cls-3" d="M.6,35.171C-.747,22.1-1.491,9.123,4.726-3.2A19.871,19.871,0,0,0,6.6-10.016a11.465,11.465,0,0,1,4.886-8.525,2.836,2.836,0,0,1,2.526-.066,8.019,8.019,0,0,1,4,8.116C16.877.463,15.731,11.425,14.062,22.3,13.268,27.479,7.779,35.251.6,35.171" transform="translate(0.325 18.871)"/>
      </g>
      <g id="Group_37" data-name="Group 37" transform="translate(131.127 254.132)">
        <path id="Path_151" data-name="Path 151" class="cls-3" d="M11.12,35.532C3.542,34.389-.633,29.97-2.128,23.862-3.978,16.3-4.805,8.452-5.653.68c-.5-4.585-.052-9.27-.3-13.9-.169-3.133,1.9-4.356,4.032-5.639.387-.232,1.283-.3,1.478-.057,1.947,2.371,5.009,3.792,5.138,7.675A23.889,23.889,0,0,0,6.956-2.4a46.082,46.082,0,0,1,4.479,20.39c-.132,5.77-.209,11.538-.315,17.546" transform="translate(5.966 19.065)"/>
      </g>
      <g id="Group_38" data-name="Group 38" transform="translate(51.441 256.863)">
        <path id="Path_152" data-name="Path 152" class="cls-3" d="M4.849,0C8.6,4.559,12.06,8.709,15.434,12.927a3.011,3.011,0,0,1,.238,1.881c-.515,7.494-1.229,14.977-1.561,22.48-.3,6.824-4.387,12.053-7.079,17.867-.246.524-2.039.739-2.947.49-5.8-1.587-8.076-7.543-5.842-13.15a44.654,44.654,0,0,0,2.7-11.87c.948-9.27,1.409-18.591,2.245-27.876C3.286,1.621,4.471.593,4.849,0" transform="translate(2.602)"/>
      </g>
      <g id="Group_39" data-name="Group 39" transform="translate(116.853 256.718)">
        <path id="Path_153" data-name="Path 153" class="cls-3" d="M6.242,0C9.283.241,8.868,2.446,9.088,4.442q1.98,17.874,4.141,35.734a11.556,11.556,0,0,0,1.317,3.465c2.426,4.971-1.8,12.1-7.454,12.34a3.219,3.219,0,0,1-2.239-1.415c-5.487-8.21-7.46-17.4-7.474-27.154a89.219,89.219,0,0,0-.616-9.2c-.321-3.064-.112-5.808,2.769-7.732C2.874,8.248,3.919,4.487,5.543,1.123A10.861,10.861,0,0,1,6.242,0" transform="translate(3.349)"/>
      </g>
      <g id="Group_40" data-name="Group 40" transform="translate(122.355 69.487)">
        <path id="Path_154" data-name="Path 154" class="cls-3" d="M0,3.087C6.458-3.6,20.811-2.6,27.432,2.248c4.356,3.182,5.971,7.569,6.128,12.4.186,5.762-.5,11.552-.862,18.3a45.812,45.812,0,0,1-4.865-2.718c-4.072-3.093-7.314-6.933-8.711-11.91C17.409,12.219,12.99,9.006,7.649,6.584,5.186,5.464,2.726,4.336,0,3.087" transform="translate(0 1.656)"/>
      </g>
      <g id="Group_41" data-name="Group 41" transform="translate(30.359 69.256)">
        <path id="Path_155" data-name="Path 155" class="cls-3" d="M21.918,3.083c-4.728,2.546-9.13,4.648-13.213,7.24-1.827,1.16-3.2,3.19-4.459,5.043C1.514,19.389-.84,23.676-3.695,27.6c-1.343,1.847-3.477,3.121-5.435,4.814-3.293-7.363-3.061-14.556-1.65-21.813C-9.706,5.1-5.8,1.929-.94.15c6.962-2.549,14-2.617,20.682,1.223a18.711,18.711,0,0,1,2.176,1.71" transform="translate(11.76 1.654)"/>
      </g>
      <g id="Group_42" data-name="Group 42" transform="translate(106.593 220.032)">
        <path id="Path_156" data-name="Path 156" class="cls-3" d="M6.782,30.653c3.362-5.959.81-12.073.435-18.047C7.051,9.9,4.691,7.231,3.036,4.734c-1.89-2.849-4.659-5.246-5.985-8.3-1.042-2.4-.607-5.5-.558-8.279a26.239,26.239,0,0,1,.822-4.591c4.109,0,8.047-.043,11.979.054a2,2,0,0,1,1.377,1.2C12.83-8.511,15-1.841,16.985,4.88c1.876,6.326-.977,11.864-3.505,17.3-1.469,3.164-3.677,5.985-5.556,8.958-.378-.163-.762-.321-1.143-.484" transform="translate(3.639 16.447)"/>
      </g>
      <g id="Group_43" data-name="Group 43" transform="translate(58.707 220.024)">
        <path id="Path_157" data-name="Path 157" class="cls-3" d="M6.565,30.637C3,27.612.686,23.357-.932,18.755A52.018,52.018,0,0,1-3.484,8.643c-.238-1.7.679-3.611,1.237-5.378C-1.385.542-.277-2.107.534-4.845c1.008-3.419,1.741-6.922,2.792-10.324a2.688,2.688,0,0,1,2.082-1.2c3.614-.12,7.237-.054,11.441-.054.04.53.1,1.781.249,3.027a36.615,36.615,0,0,1,.616,5c-.052,1.793-.066,3.889-.965,5.3C14.065,1.094,10.6,4.806,8.163,9.113c-1.3,2.291-1.389,5.4-1.535,8.173-.235,4.45-.063,8.921-.063,13.351" transform="translate(3.522 16.438)"/>
      </g>
      <g id="Group_44" data-name="Group 44" transform="translate(60.467 138.556)">
        <path id="Path_158" data-name="Path 158" class="cls-3" d="M0,23.662C2.214,17.273,4.087,11.875,5.991,6.376,10.876,9,16.008,16.119,15.39,19.132c6.223-3.29,8.654-9.19,10.825-15.166,2-5.507,3.691-11.126,5.885-16.661V31.271C23.778,19.246,12.4,21.288,0,23.662" transform="translate(0 12.696)"/>
      </g>
      <g id="Group_45" data-name="Group 45" transform="translate(81.903 37.303)">
        <path id="Path_159" data-name="Path 159" class="cls-3" d="M6.612,56.031c-.636-3.731-1.518-7.44-1.856-11.2Q3.222,27.8,2.093,10.747C1.9,7.877.163,6.509-1.871,5.214c-1.569-1-2.151-1.973-1.254-3.918A81.408,81.408,0,0,0,4.026-28.99a4.9,4.9,0,0,1,.269-1c3.07-.487,3.013,1.5,3.01,3.591Q7.27,3.494,7.29,33.388V55.931c-.226.034-.452.069-.679.1" transform="translate(3.548 30.064)"/>
      </g>
      <g id="Group_46" data-name="Group 46" transform="translate(49.207 75.047)">
        <path id="Path_160" data-name="Path 160" class="cls-3" d="M10.134,0c4.155,11.552,8.007,22.257,12.111,33.66A52.98,52.98,0,0,1,.644,18.772,84.676,84.676,0,0,1-4.709,11.7c-.968-1.349-1.18-2.574.667-3.594C.589,5.547,5.151,2.861,10.134,0" transform="translate(5.438)"/>
      </g>
      <g id="Group_47" data-name="Group 47" transform="translate(109.732 75.149)">
        <path id="Path_161" data-name="Path 161" class="cls-3" d="M0,21.862C4.124,10.349,7.964-.364,12.039-11.73c4.9,2.658,9.488,5.017,13.9,7.663.8.475,1.572,2.552,1.194,3.187A53.281,53.281,0,0,1,0,21.862" transform="translate(0 11.73)"/>
      </g>
      <g id="Group_48" data-name="Group 48" transform="translate(44.858 215.227)">
        <path id="Path_162" data-name="Path 162" class="cls-3" d="M12.945,3.267c-2.852,8-5.135,16.257-8.763,23.878C2.014,31.707-2.259,35.272-6.177,39.992-9.284,23.749-2.388,11.105,4-1.753l8.946,5.02" transform="translate(6.946 1.753)"/>
      </g>
      <g id="Group_49" data-name="Group 49" transform="translate(122.363 215.157)">
        <path id="Path_163" data-name="Path 163" class="cls-3" d="M5.5,0C12.134,12.9,17.861,25.891,16.04,40.851c-.3.166-.6.338-.9.5-3.353-4.585-7.337-8.846-9.9-13.84C2.019,21.24-.043,14.367-2.594,7.746c-.842-2.188-.212-3.462,2.119-4.316C1.5,2.712,3.222,1.343,5.5,0" transform="translate(2.95)"/>
      </g>
      <g id="Group_50" data-name="Group 50" transform="translate(94.113 37.193)">
        <path id="Path_164" data-name="Path 164" class="cls-3" d="M.038,55.391V40.519Q.038,7.211.049-26.1c0-1.658-.587-3.9,1.647-3.591C3.944-20.378,6.089-11.506,8.231-2.637a1.806,1.806,0,0,0,.092.329C9.2-.352,10.96,1.721,10.717,3.52c-.209,1.506-2.847,2.6-4.23,4.049A5.136,5.136,0,0,0,4.958,10.4c-.567,7.852-.8,15.73-1.489,23.568C2.833,41.146,1.745,48.291.851,55.454Z" transform="translate(0.02 29.72)"/>
      </g>
      <g id="Group_51" data-name="Group 51" transform="translate(155.812 134.652)">
        <path id="Path_165" data-name="Path 165" class="cls-3" d="M8.479,34.309c-2.938.4-4.946.676-7.44,1.017C2.812,23.883-3.508,14.02-4.336,3.215c-.544-7.162.06-14.413.6-21.624C.186-12.258,4.736-6.582,5.16.838A26.941,26.941,0,0,1,4.633,7.6c-1.251,6.294.607,12.114,2.28,18.021a88,88,0,0,1,1.566,8.691" transform="translate(4.55 18.409)"/>
      </g>
      <g id="Group_52" data-name="Group 52" transform="translate(17.564 134.533)">
        <path id="Path_166" data-name="Path 166" class="cls-3" d="M4.967,35.027c-2.38-.315-4.573-.61-7.632-1.017C-1.88,30.359-1.394,26.7-.282,23.237A38.334,38.334,0,0,0,.846,4.554c-.9-5.344.767-10.968,3.906-15.8,1.641-2.529,3.156-5.14,4.625-7.546C11.319-8.419,11.628,2.237,8.286,12.948,6.542,18.532,5.709,24.411,4.638,30.19c-.261,1.4.178,2.921.329,4.837" transform="translate(2.665 18.794)"/>
      </g>
      <g id="Group_53" data-name="Group 53" transform="translate(111.194 86.722)">
        <path id="Path_167" data-name="Path 167" class="cls-3" d="M0,15.471c5.281-3.431,10.77-6.306,15.4-10.2,4.553-3.832,8.233-8.7,12.712-13.568C26.928.127,25.788,8.251,24.608,16.651,16.318,17.808,8.021,18.1,0,15.471" transform="translate(0 8.301)"/>
      </g>
      <g id="Group_54" data-name="Group 54" transform="translate(94.383 138.679)">
        <path id="Path_168" data-name="Path 168" class="cls-3" d="M11.445,21.068c.347.558.69,1.117.982,1.589-3.436.725-7.134.9-10.261,2.331-3.076,1.406-5.576,4.078-8.308,6.183V-11.3c1.91,5.73,3.517,10.911,5.364,16C1.4,10.7,3.879,16.557,9.549,20.254a15.369,15.369,0,0,0,2.028.939Z" transform="translate(6.141 11.304)"/>
      </g>
      <g id="Group_55" data-name="Group 55" transform="translate(47.561 86.802)">
        <path id="Path_169" data-name="Path 169" class="cls-3" d="M18.62,15.206c-8.2,2.947-15.908,2.546-23.594,1.816-3.4-.324-2.254-3.668-2.649-5.547-.919-4.4-1.025-8.978-1.6-13.462A34.321,34.321,0,0,1-9.98-8.159a63.931,63.931,0,0,0,28.6,23.365" transform="translate(9.991 8.159)"/>
      </g>
      <g id="Group_56" data-name="Group 56" transform="translate(140.246 119.626)">
        <path id="Path_170" data-name="Path 170" class="cls-3" d="M5.423,19.811C2.694,15.971.063,12.3-2.52,8.6A2.675,2.675,0,0,1-2.91,7.125c.014-3.093.1-6.189.123-9.281.026-2.709.006-5.418.006-8.474C1-6.506,1-6.506,5.97-8.969c3.3,9.668,1.469,19.2-.547,28.78" transform="translate(2.91 10.63)"/>
      </g>
      <g id="Group_57" data-name="Group 57" transform="translate(148.568 143.324)">
        <path id="Path_171" data-name="Path 171" class="cls-3" d="M7.239,29.274c-2.219-4.2-4.82-8.6-6.933-13.216C-3.294,8.194-5.482.021-2.452-8.576a31.211,31.211,0,0,1,4.087-7.131c-.982,9.227.9,17.878,3.623,26.429s3.236,14.5,1.982,18.551" transform="translate(3.884 15.707)"/>
      </g>
      <g id="Group_58" data-name="Group 58" transform="translate(26.066 143.56)">
        <path id="Path_172" data-name="Path 172" class="cls-3" d="M4.3,0c5,6.085,5.962,12.643,4.911,19.522A47.407,47.407,0,0,1,.953,39.431c-1.06,1.529-1.506,3.482-2.259,5.306-1.864-4.129-.733-8.382.209-12.532,1.383-6.065,3.4-12,4.519-18.1.81-4.39.6-8.969.882-14.1" transform="translate(2.309)"/>
      </g>
      <g id="Group_59" data-name="Group 59" transform="translate(35.675 120.323)">
        <path id="Path_173" data-name="Path 173" class="cls-3" d="M7.035,11.24-1.4,23.975c-1.97-9.78-3.943-19.313-.47-28.941Q.379-3.827,2.991-2.5C4.03-3.6,5.05-4.671,6.339-6.031c3.084,5.707-3.1,11.939.7,17.271" transform="translate(3.774 6.031)"/>
      </g>
      <g id="Group_60" data-name="Group 60" transform="translate(158.548 189.032)">
        <path id="Path_174" data-name="Path 174" class="cls-3" d="M1.679,10.284C.683,6.393-.2,3.368-.812.293a4.551,4.551,0,0,1,.5-3.2C1.545-5.543,11.15-6.451,13.707-4.375c.885.716,1.687,1.532,2.54,2.288,3.837,3.385,3.889,4.914-.767,7.231-4.187,2.085-8.795,3.316-13.8,5.14" transform="translate(0.901 5.518)"/>
      </g>
      <g id="Group_61" data-name="Group 61" transform="translate(7.49 188.887)">
        <path id="Path_175" data-name="Path 175" class="cls-3" d="M0,4.622c6.667-8.059,9.88-8.081,17.729-5.8,2.761.8,3.5,2.786,2.867,5.318-.707,2.827-1.644,5.6-2.534,8.565C11.326,11.532,4.774,10.4,0,4.622" transform="translate(0 2.48)"/>
      </g>
      <g id="Group_62" data-name="Group 62" transform="translate(138.283 92.302)">
        <path id="Path_176" data-name="Path 176" class="cls-3" d="M1.319,0C9.166,6.578,8.31,16.315,9.867,25.152c.255,1.449-2.351,3.4-4.058,5.69C-.319,20.238-2.8,10.384,1.319,0" transform="translate(0.708)"/>
      </g>
      <g id="Group_63" data-name="Group 63" transform="translate(2.564 201.231)">
        <path id="Path_177" data-name="Path 177" class="cls-3" d="M4.385,14.58q1.34-6.173,2.68-12.348c.12-.55.507-1.134.4-1.624A16.44,16.44,0,0,0,6.462-2.021c-.65.513-1.555.891-1.9,1.555C3.151,2.24,1.94,5.047.611,7.793.032,8.987-.646,10.13-1.276,11.3c-.361-.152-.719-.3-1.077-.458C.147,4.523,2.641-1.795,5.024-7.823L20.48-3.089c-.871,4.768-1.71,9.379-2.552,13.992l-.57-.077c0-2.532.066-5.069-.032-7.6A10.864,10.864,0,0,0,16.6.688c-.59.71-1.486,1.334-1.718,2.148-.959,3.365-1.7,6.793-2.557,10.189a2.912,2.912,0,0,1-1.432,1.841,6.6,6.6,0,0,1-.252-2.128c.7-3.2,1.652-6.355,2.208-9.576.166-.968-.664-2.108-1.037-3.167-.9.687-2.3,1.2-2.606,2.1C7.994,5.605,7.146,9.245,6.118,12.824a13.965,13.965,0,0,1-.914,1.99c-.275-.077-.544-.158-.819-.235" transform="translate(2.353 7.823)"/>
      </g>
      <g id="Group_64" data-name="Group 64" transform="translate(161.671 201.339)">
        <path id="Path_178" data-name="Path 178" class="cls-3" d="M8.441,3.653a9.856,9.856,0,0,0-.278,2.841c.939,4.722,2.016,9.413,3.044,14.118-.344.1-.687.209-1.037.312-.793-2.566-1.581-5.138-2.383-7.7a53.363,53.363,0,0,0-2.016-6.1c-.3-.667-1.541-.916-2.351-1.36-.284.848-.928,1.764-.785,2.532.759,4.064,1.718,8.09,2.612,12.128l-1.094.361a24.947,24.947,0,0,1-1.214-3.05C2.192,14.887,1.631,11.986.832,9.157a15.4,15.4,0,0,0-1.612-3l-.971.389V16.82c-.229.02-.458.043-.684.066C-3.163,12.6-3.982,8.327-4.523,4.014a2.918,2.918,0,0,1,1.65-2.251C1.41.423,5.769-.677,10.483-1.96c2.345,5.9,4.908,12.351,7.471,18.8l-1.019.524q-3.5-6.985-6.993-13.969Z" transform="translate(4.529 1.96)"/>
      </g>
      <g id="Group_65" data-name="Group 65" transform="translate(37.987 94.262)">
        <path id="Path_179" data-name="Path 179" class="cls-3" d="M2.69,18.116C-2.525,15.682-1.565,11.9-.947,7.887,0,1.79.683-4.3,5.457-8.886c.4-.384,1.037-.925,1.406-.822A1.96,1.96,0,0,1,8.008-8.4,34.53,34.53,0,0,1,2.69,18.116" transform="translate(1.443 9.72)"/>
      </g>
      <g id="Group_66" data-name="Group 66" transform="translate(148.067 102.35)">
        <path id="Path_180" data-name="Path 180" class="cls-3" d="M2.96,20.169C1.387,9.45-.116-.782-1.588-10.822c6.93,1.44,8.127,6.515,8.236,12.678C6.76,8.067,8.842,14.508,2.96,20.169" transform="translate(1.588 10.822)"/>
      </g>
      <g id="Group_67" data-name="Group 67" transform="translate(29.806 102.783)">
        <path id="Path_181" data-name="Path 181" class="cls-3" d="M2.778,19.6c-4.121-2.606-4.31-6.618-4.264-10.6A103.516,103.516,0,0,1-.819-1.536C-.495-4.411.253-7.123,3.489-8.349c1.04-.4,1.8-1.529,3.623-2.165C5.676-.557,4.245,9.4,2.778,19.6" transform="translate(1.491 10.514)"/>
      </g>
      <g id="Group_68" data-name="Group 68" transform="translate(110.538 157.765)">
        <path id="Path_182" data-name="Path 182" class="cls-3" d="M1.016,8.728c-2.3-2.085-1.873-4.044.066-6.166C3.236.2,5.2-2.332,7.156-4.683,12.182.2,13.505,5.793,14.147,12.806c-4.734-1.5-9-2.849-13.259-4.2l.129.123" transform="translate(0.545 4.683)"/>
      </g>
      <g id="Group_69" data-name="Group 69" transform="translate(43.997 205.954)">
        <path id="Path_183" data-name="Path 183" class="cls-3" d="M0,21.338C.556,10.129.882-.553,4.264-11.449,6.635-8.514,8.669-6,10.455-3.783,7,4.513,3.617,12.649,0,21.338" transform="translate(0 11.449)"/>
      </g>
      <g id="Group_70" data-name="Group 70" transform="translate(131.945 205.981)">
        <path id="Path_184" data-name="Path 184" class="cls-3" d="M5.975,18.117C2.954,11.568-.067,5.021-3.206-1.777-1.43-4.031.588-6.6,3.048-9.721A80.99,80.99,0,0,1,6.955,17.9l-.979.215" transform="translate(3.206 9.721)"/>
      </g>
      <g id="Group_71" data-name="Group 71" transform="translate(107.483 237.721)">
        <path id="Path_185" data-name="Path 185" class="cls-3" d="M5.423,18.009C1.366,9.195-3.783.7-2.784-9.663,5.75-2.257,7.431,7.293,5.423,18.009" transform="translate(2.91 9.663)"/>
      </g>
      <g id="Group_72" data-name="Group 72" transform="translate(70.098 237.299)">
        <path id="Path_186" data-name="Path 186" class="cls-3" d="M.431,18.369C-1.333,7.424.045-2.473,9.217-9.856,10.271.811,3.96,9.165.431,18.369" transform="translate(0.232 9.856)"/>
      </g>
      <g id="Group_73" data-name="Group 73" transform="translate(95.813 212.822)">
        <path id="Path_187" data-name="Path 187" class="cls-3" d="M6.586,3.877C6.1,10.4,5.613,17.033,5.123,23.659c-.175.043-.349.083-.521.126C1.967,15.412-.665,7.038-3.534-2.08.243.142,3.207,1.889,6.586,3.877" transform="translate(3.534 2.08)"/>
      </g>
      <g id="Group_74" data-name="Group 74" transform="translate(80.552 212.895)">
        <path id="Path_188" data-name="Path 188" class="cls-3" d="M6.577,0C3.991,8.5,1.669,16.14-.654,23.778c-.424-.089-.845-.175-1.271-.261-.2-2.423-.389-4.843-.624-7.262-.212-2.231-.349-4.479-.747-6.675C-3.741,7.154-3.841,5.321-.831,4.3c2.348-.8,4.39-2.5,7.408-4.3" transform="translate(3.529)"/>
      </g>
      <g id="Group_75" data-name="Group 75" transform="translate(46.89 110.33)">
        <path id="Path_189" data-name="Path 189" class="cls-3" d="M1.258,0c1.492,4.258,2.775,7.864,4,11.489a3.919,3.919,0,0,1,.355,2.265,115.487,115.487,0,0,1-5.158,12.4C-1.771,22.492-.076,19.015.23,15.521c.115-1.332.558-2.872.077-3.983C-1.37,7.655-.294,4.152,1.258,0" transform="translate(0.675)"/>
      </g>
      <g id="Group_76" data-name="Group 76" transform="translate(134.427 110.933)">
        <path id="Path_190" data-name="Path 190" class="cls-3" d="M2.232,0A16.347,16.347,0,0,1,3.395,10.639c-.736,3.373.435,7.154.7,10.762.1,1.251.017,2.52.017,4.25C-2.3,20.559-2.877,8.918,2.232,0" transform="translate(1.198)"/>
      </g>
      <g id="Group_77" data-name="Group 77" transform="translate(142.47 315.122)">
        <path id="Path_191" data-name="Path 191" class="cls-3" d="M2.492,0C2,9.834,1.459,20.5.992,29.786A38.119,38.119,0,0,1,2.492,0" transform="translate(1.337)"/>
      </g>
      <g id="Group_78" data-name="Group 78" transform="translate(141.717 142.162)">
        <path id="Path_192" data-name="Path 192" class="cls-3" d="M4.186,16.134C-.485,8.863-.591.392-2.246-8.657.97-3.6,4.008.341,3.341,6.091c-.378,3.253.518,6.655.845,10.043" transform="translate(2.246 8.657)"/>
      </g>
      <g id="Group_79" data-name="Group 79" transform="translate(39.802 314.445)">
        <path id="Path_193" data-name="Path 193" class="cls-3" d="M0,0C4.791,10.421,5.722,20.98,1.249,31.736,3.116,21.074,1.692,10.533,0,0"/>
      </g>
      <g id="Group_80" data-name="Group 80" transform="translate(39.226 143.189)">
        <path id="Path_194" data-name="Path 194" class="cls-3" d="M0,14.755C.627,7.1-1.558-1.413,5.561-7.917,4.565-2.307,3.766,3,2.617,8.22,2.119,10.482.893,12.582,0,14.755" transform="translate(0 7.917)"/>
      </g>
      <g id="Group_81" data-name="Group 81" transform="translate(51.617 245.825)">
        <path id="Path_195" data-name="Path 195" class="cls-3" d="M3.211,6.993C1.5,5.521-.033,4.206-1.723,2.757-.025.638,1.725-1.541,3.5-3.752,6.441,1.68,6.384,5.025,3.211,6.993" transform="translate(1.723 3.752)"/>
      </g>
      <g id="Group_82" data-name="Group 82" transform="translate(127.26 247.257)">
        <path id="Path_196" data-name="Path 196" class="cls-3" d="M1.811,5.981c-3.54-1.933-3.625-3.353-.7-9.19C2.945-1.6,4.838.05,6.883,1.843,5.1,3.3,3.561,4.552,1.811,5.981" transform="translate(0.972 3.209)"/>
      </g>
      <g id="Group_83" data-name="Group 83" transform="translate(166.207 161.833)">
        <path id="Path_197" data-name="Path 197" class="cls-3" d="M2.453,16.734C3.069,7.917-3.349.153-.651-8.979Q1.505,3.8,3.662,16.58c-.4.052-.8.1-1.208.155" transform="translate(1.316 8.979)"/>
      </g>
      <g id="Group_84" data-name="Group 84" transform="translate(15.723 162.292)">
        <path id="Path_198" data-name="Path 198" class="cls-3" d="M0,16.242a42.351,42.351,0,0,1,.3-4.359c1.194-6.9,2.463-13.777,4.061-20.6C6.16.143.53,7.809.833,16.42.556,16.363.281,16.3,0,16.242" transform="translate(0 8.715)"/>
      </g>
      <g id="Group_85" data-name="Group 85" transform="translate(120.687 152.615)">
        <path id="Path_199" data-name="Path 199" class="cls-3" d="M2.919,0V10.891l-1,.473c-1.246-2.217-3.1-4.336-3.477-6.69C-1.738,3.562.911,2,2.919,0" transform="translate(1.566)"/>
      </g>
      <g id="Group_86" data-name="Group 86" transform="translate(61.133 153.424)">
        <path id="Path_200" data-name="Path 200" class="cls-3" d="M.362,6.581C.181,3.259,0-.06-.194-3.531c4.874,1.283,5.45,2.3,3.717,6.042C2.844,3.983,2.008,5.384,1.246,6.819c-.295-.08-.59-.16-.885-.238" transform="translate(0.194 3.531)"/>
      </g>
      <g id="Group_87" data-name="Group 87" transform="translate(128.281 318.984)">
        <path id="Path_201" data-name="Path 201" class="cls-3" d="M2.27,11.335C1.1,5.482-.075-.375-1.218-6.082,2.533-2.482,4.1,5.17,2.27,11.335" transform="translate(1.218 6.082)"/>
      </g>
      <g id="Group_88" data-name="Group 88" transform="translate(53.913 320.229)">
        <path id="Path_202" data-name="Path 202" class="cls-3" d="M2.627,0Q1.106,8.114-.417,16.226C-2.663,10.258-.861,4.971,2.627,0" transform="translate(1.409)"/>
      </g>
      <g id="Group_89" data-name="Group 89" transform="translate(177.449 197.318)">
        <path id="Path_203" data-name="Path 203" class="cls-3" d="M1.771,0C4.082,2.915,6.152,5.527,8.228,8.139c-.3.326-.6.65-.9.977C4.614,6.97,1.9,4.825-.95,2.569,0,1.67.742.974,1.771,0" transform="translate(0.95)"/>
      </g>
      <g id="Group_90" data-name="Group 90" transform="translate(0 196.884)">
        <path id="Path_204" data-name="Path 204" class="cls-3" d="M4.292,0c.853,1.5,1.873,2.887,1.7,3.061C3.656,5.384,1.154,7.537-1.3,9.731c-.332-.329-.667-.656-1-.985C-.278,6.063,1.743,3.379,4.292,0" transform="translate(2.303)"/>
      </g>
      <g id="Group_91" data-name="Group 91" transform="translate(30.999 132.977)">
        <path id="Path_205" data-name="Path 205" class="cls-3" d="M3.4,6.954C-1.455,4.78-1.5.685-1.824-3.307l1.1-.424Q1.338,1.613,3.4,6.954" transform="translate(1.824 3.731)"/>
      </g>
      <g id="Group_92" data-name="Group 92" transform="translate(150.558 132.308)">
        <path id="Path_206" data-name="Path 206" class="cls-3" d="M3.528.267c-1.28,3.617.026,8.285-4.37,10.639l-1.051-.432Q.328,5.163,2.543-.143c.329.137.659.272.985.41" transform="translate(1.893 0.143)"/>
      </g>
      <g id="Group_93" data-name="Group 93" transform="translate(72.113 23.04)">
        <path id="Path_207" data-name="Path 207" class="cls-3" d="M1.716,8.064C-.61,4.244-1.976.252.1-4.327q.8,6.194,1.612,12.391" transform="translate(0.92 4.327)"/>
      </g>
      <g id="Group_94" data-name="Group 94" transform="translate(112.034 23.327)">
        <path id="Path_208" data-name="Path 208" class="cls-3" d="M.917,0C3.2,4.058,1.868,7.615-.492,11.04L.917,0" transform="translate(0.492)"/>
      </g>
    </g>
  </g>
</svg>
