<svg xmlns="http://www.w3.org/2000/svg" viewBox="0 0 30 30">
  <defs>
    <style>
      .cls-1 {
        fill: gray;
      }
    </style>
  </defs>
  <g id="fb" transform="translate(0.077 0.385)">
    <path id="Path_13" data-name="Path 13" class="cls-1" d="M29.923,14.755c0,7.18-4.282,13.47-11,15v-12h3v-5h-4c0-1.795,1.131-4,3-4,.749,0,1.513.851,2,1v-5a13.238,13.238,0,0,0-3,0,7.492,7.492,0,0,0-5,2c-1.646,1.5-2,3.794-2,6h-3v5h3v12a15.427,15.427,0,0,1-13-15,15,15,0,1,1,30,0Z" transform="translate(0 -0.14)"/>
  </g>
</svg>
