<svg xmlns="http://www.w3.org/2000/svg" viewBox="0 0 30 31">
  <defs>
    <style>
      .cls-1 {
        fill: gray;
      }
    </style>
  </defs>
  <g id="instagram" transform="translate(0.077 0.398)">
    <g id="Group_7" data-name="Group 7">
      <g id="Group_6" data-name="Group 6">
        <path id="Path_14" data-name="Path 14" class="cls-1" d="M14.923-.4a14.934,14.934,0,0,0-15,15c0,8.336,6.664,16,15,16s15-7.664,15-16A14.932,14.932,0,0,0,14.923-.4Zm10,24a1.352,1.352,0,0,1-1,1h-18c-.375,0,0-.623,0-1V6.6c0-.375-.377-1,0-1h18a1.352,1.352,0,0,1,1,1Zm-14-9c0-2.084,1.916-3,4-3s4,.916,4,3a4.172,4.172,0,0,1-4,4A4.172,4.172,0,0,1,10.923,14.6Zm8-7h4v4h-4Zm2,7h2v8h-15v-8h2c-.08.379,0-.4,0,0,0,3.1,1.905,6,5,6a6.3,6.3,0,0,0,6-6C20.921,14.2,21,14.981,20.923,14.6Z"/>
      </g>
    </g>
  </g>
</svg>
