<svg xmlns="http://www.w3.org/2000/svg" viewBox="0 0 134.566 109.736">
  <defs>
    <style>
      .cls-1 {
        fill: rgba(239,163,75,0.6);
      }
    </style>
  </defs>
  <g id="weightlifter" transform="translate(134.566 48.067) rotate(150)">
    <path id="Path_38" data-name="Path 38" class="cls-1" d="M64,32h4.111V52.556H64Zm0,0" transform="translate(-47.555 -23.777)"/>
    <path id="Path_39" data-name="Path 39" class="cls-1" d="M121.283,10.278h-6.167V2.056A2.056,2.056,0,0,0,113.061,0H96.615A2.056,2.056,0,0,0,94.56,2.056v18.5H28.779V2.056A2.056,2.056,0,0,0,26.723,0H10.278A2.056,2.056,0,0,0,8.223,2.056v8.223H2.056A2.056,2.056,0,0,0,0,12.334v32.89A2.056,2.056,0,0,0,2.056,47.28H8.223v6.167A2.056,2.056,0,0,0,10.278,55.5H26.723a2.056,2.056,0,0,0,2.056-2.056V37H94.56V53.447A2.056,2.056,0,0,0,96.615,55.5h16.445a2.056,2.056,0,0,0,2.056-2.056V47.28h6.167a2.056,2.056,0,0,0,2.056-2.056V12.334A2.056,2.056,0,0,0,121.283,10.278ZM4.111,43.169V14.39H8.223V43.169Zm20.556,8.223H12.334V4.111H24.668Zm4.111-18.5V24.668H32.89V32.89Zm8.223,0V24.668h4.111V32.89Zm8.223,0V24.668h32.89V32.89Zm37,0V24.668h4.111V32.89Zm8.223,0V24.668H94.56V32.89ZM111,51.391H98.671V4.111H111Zm8.223-8.223h-4.111V14.39h4.111Zm0,0"/>
    <path id="Path_40" data-name="Path 40" class="cls-1" d="M400,40h4.111V60.556H400Zm0,0" transform="translate(-297.218 -29.722)"/>
  </g>
</svg>
