<?xml version="1.0" encoding="utf-8"?>
<!-- Generator: Adobe Illustrator 22.1.0, SVG Export Plug-In . SVG Version: 6.00 Build 0)  -->
<svg version="1.1" xmlns="http://www.w3.org/2000/svg" xmlns:xlink="http://www.w3.org/1999/xlink" x="0px" y="0px"
	 viewBox="0 0 1366 768" style="enable-background:new 0 0 1366 768;" xml:space="preserve">
<style type="text/css">
	.st0{fill:#444967;}
	.st1{fill:#F44336;}
	.st2{fill:#E84033;}
	.st3{fill:#E94034;}
	.st4{fill:#303A59;}
	.st5{fill:#82B1FF;}
	.st6{fill:#03A2EA;}
	.st7{fill:#7CA9F3;}
	.st8{fill:#03A9F4;}
	.st9{fill:none;stroke:#03A9F4;stroke-miterlimit:10;}
	.st10{fill:none;stroke:#7DABF6;stroke-miterlimit:10;}
	.st11{fill:#EF4235;}
	.st12{fill:#414662;}
	.st13{fill:#7BA8F2;}
	.st14{fill:#414562;}
</style>
<g id="chair">
	<path class="st0" d="M737.2,410.3l28.4-169.5c1.4-9.2,11.4-10.9,11.4-10.9l19.9,0.9l45.8,25.9c10.1,5.4,9.1,21.9,9.1,21.9
		L818.5,444c-1,6.2-7.4,7.1-7.4,7.1H791l-49.7-28.8C735.3,418.3,737.2,410.3,737.2,410.3z"/>
	<polygon class="st1" points="769.7,290.4 764,324.2 782.1,335.3 789.6,302 	"/>
	<polygon class="st1" points="793.9,303.8 788.2,337.7 806.3,348.8 813.8,315.5 	"/>
	<polygon class="st2" points="785,343.6 779.3,377.5 797.4,388.6 804.9,355.3 	"/>
	<polygon class="st1" points="761.1,329.4 755.4,363.3 773.5,374.4 781,341 	"/>
	<polygon class="st3" points="753.2,366.1 747.4,400 765.5,411.1 773,377.8 	"/>
	<polygon class="st1" points="777.1,379.7 771.3,413.6 789.4,424.7 796.9,391.4 	"/>
	<path class="st4" d="M803.4,442.8c-1.5,7.5-12.4,8.3-12.4,8.3h20.2c0,0,6.4-1,7.4-7.1l33.2-165.2c0,0,1-16.5-9.1-21.9l-45.8-25.9
		l-16.2-0.8l48.8,28.2c7.8,4.3,7.5,15.5,7.5,15.5L803.4,442.8z"/>
</g>
<g id="圖層_3">
	<polygon class="st5" points="840.2,444 929.5,496.1 924.2,470.1 860.3,433.3 	"/>
	<polyline class="st5" points="812,451.3 872.1,446.8 892.9,457.7 812,464.2 812,451.3 	"/>
	<polygon class="st6" points="794.4,473.2 879.3,466.8 892.9,457.7 794.4,465.5 	"/>
	<path class="st7" d="M801,472.8l-79.5-47.4l15.5-10.6l0,0c0.3,2.5,1.3,5.5,4.2,7.5l49.7,28.8h20.2c0,0,0.1,0,0.3-0.1
		c1.4,0.7,2.3,1.1,2.5,1.2c0,0,3.6,1.1-2,12C812,464.2,806,475.5,801,472.8"/>
	<path class="st0" d="M814.1,452.2c-0.2-0.1-0.9-0.4-2.1-0.9c-3.8,0.9-8.2,5.3-10.7,10.8c-2,4.6-2.1,8.7-0.4,10.8l0,0
		c5,2.6,11-8.7,11-8.7C817.7,453.2,814.1,452.2,814.1,452.2z"/>
	<polygon class="st8" points="933,465.5 868.7,427.9 840.2,444 860.3,433.3 924.2,470.1 929.5,496.1 939.1,491.2 	"/>
	<line class="st9" x1="812" y1="451.3" x2="872.1" y2="446.8"/>
</g>
<g id="圖層_4">
	<path class="st0" d="M641.6,464.2l78.3-45.4c4.9-2.9,9.8-1.6,9.8-1.6l58.5,34.1c7.8,5.3,3.9,17.8,3.9,17.8
		c-0.8,2-77.1,45.9-77.1,45.9l-75.6-37.6L641.6,464.2z"/>
	<g>
		<polygon class="st10" points="792.1,456.2 792.1,456.2 792.1,456.2 		"/>
		<path class="st4" d="M794.4,473.2c0-4.3-0.7-9.1-1.3-12.5c0.3,4.4-0.9,8.3-0.9,8.3c-0.8,2-77.1,45.9-77.1,45.9l-6.3-3.1l0,0
			l7.6,10.8l20.7-2.6l52.7-31.1C794.8,485.6,794.4,473.2,794.4,473.2z"/>
	</g>
	<polygon class="st1" points="656.1,465.9 662,469.8 733.1,429.4 726.9,425.7 	"/>
	<polygon class="st11" points="710.9,497.8 717.1,501.6 788.3,460.7 782,457.7 	"/>
	<path class="st4" d="M634.5,493.9c0.9,3.7,67.8,40.3,67.8,40.3c2.9,1.5,34.6-14.2,34.6-14.2l-20.7,2.6l-69.8-33.7L634.5,493.9z"/>
</g>
<g id="圖層_5">
	<g>
		<polygon class="st8" points="660.9,503.2 626.6,602 652.1,616.5 658.4,640.1 664.4,640.1 667.9,638.1 661.8,612.5 634.1,596.5 
			665.5,505.8 		"/>
		<polygon class="st5" points="647.8,495.6 617.2,585.8 597.6,574.7 569.2,590.9 652.1,640.1 658.4,640.1 652.1,616.5 626.6,602 
			660.9,503.2 		"/>
		<polygon class="st8" points="597.6,574.7 588.6,579.8 614,595.5 618.7,581.4 617.2,585.8 		"/>
	</g>
	<g>
		
			<ellipse transform="matrix(0.3965 -0.918 0.918 0.3965 -48.3663 985.7301)" class="st12" cx="725.6" cy="529.7" rx="14.2" ry="9.6"/>
		<path class="st4" d="M687.4,491.9c-0.9-0.9-2-1.5-3.2-1.8c-2.2-0.5-4.7,0-7.2,1.7c-5.6,3.8-8.9,12.2-7.5,18.6
			c0.6,2.4,1.7,4.2,3.3,5.3l0,0l0,0c0.3,0.2,0.7,0.4,1.1,0.6l44.5,25.3c-1.4-1.1-2.5-2.8-3-5.1c-1.5-6.4,1.9-14.8,7.5-18.6
			c3.1-2.1,6.2-2.4,8.6-1.2l0,0L687.4,491.9z"/>
	</g>
	<g>
		
			<ellipse transform="matrix(0.3965 -0.918 0.918 0.3965 -116.2256 998.6453)" class="st0" cx="701.4" cy="587.7" rx="14.2" ry="9.6"/>
		<path class="st4" d="M663.3,550c-0.9-0.9-2-1.5-3.2-1.8c-2.2-0.5-4.7,0-7.2,1.7c-5.6,3.8-8.9,12.2-7.5,18.6
			c0.6,2.4,1.7,4.2,3.3,5.3l0,0l0,0c0.3,0.2,0.7,0.4,1.1,0.6l44.5,25.3c-1.4-1.1-2.5-2.8-3-5.1c-1.5-6.4,1.9-14.8,7.5-18.6
			c3.1-2.1,6.2-2.4,8.6-1.2l0,0L663.3,550z"/>
	</g>
	<path class="st5" d="M652.9,549.9c0.4-0.3,0.8-0.5,1.2-0.7l-29.4-15.9c0,0-5.7-0.8-8.8,4.4c-4.1,7,0,12.1,0,12.1l29.3,16.9
		C644.6,560.6,647.8,553.4,652.9,549.9z"/>
	<path class="st13" d="M677,491.8c0.7-0.5,1.3-0.8,2-1.1l-30.6-16.3c0,0-5.7-0.8-8.8,4.4c-4.1,7,0,12.1,0,12.1l29.3,16.9
		c0.1,0,0.2,0.1,0.3,0.1C668.9,502,672.1,495.2,677,491.8z"/>
	<g>
		<path class="st14" d="M615.8,549.8c0,0-4.1-5.1,0-12.1c3.1-5.2,8.8-4.4,8.8-4.4l4.1,2.2c0-0.7-0.1-1.5-0.3-2.2
			c-1.5-6.4-7.2-8.5-12.8-4.7c-5.6,3.8-8.9,12.2-7.5,18.6c1.4,6.2,6.8,8.3,12.1,5.1L615.8,549.8z"/>
		<path class="st4" d="M578.8,501.5c-0.7-0.6-1.4-1-2.2-1.3l0,0l0,0c-2.3-0.8-5-0.3-7.8,1.6c-5.6,3.8-8.9,12.2-7.5,18.6
			c0.5,2.1,1.4,3.7,2.6,4.8l0,0l0,0c0.7,0.7,1.6,1.2,2.5,1.5l44.5,25.6c-1.4-1.1-2.4-2.8-2.9-5.1c-1.5-6.4,1.9-14.8,7.5-18.6
			c3.1-2.2,6.3-2.4,8.8-1.1L578.8,501.5z"/>
	</g>
	<g>
		<path class="st4" d="M602.2,442c-0.7-0.6-1.4-1-2.2-1.3l0,0l0,0c-2.3-0.8-5-0.3-7.8,1.6c-5.6,3.8-8.9,12.2-7.5,18.6
			c0.5,2.1,1.4,3.7,2.6,4.8l0,0l0,0c0.7,0.7,1.6,1.2,2.5,1.5l44.5,25.6c-1.4-1.1-2.4-2.8-2.9-5.1c-1.5-6.4,1.9-14.8,7.5-18.6
			c3.1-2.2,6.3-2.4,8.8-1.1L602.2,442z"/>
		<path class="st0" d="M639.6,490.9c0,0-4.1-5.1,0-12.1c3.1-5.2,8.8-4.4,8.8-4.4l3.4,1.8l0.4-0.2c0-0.7-0.1-1.5-0.3-2.2
			c-1.5-6.4-7.2-8.5-12.8-4.7c-5.6,3.8-8.9,12.2-7.5,18.6c1.4,6,6.5,8.2,11.8,5.3L639.6,490.9z"/>
	</g>
</g>
</svg>
