<svg xmlns="http://www.w3.org/2000/svg" xmlns:xlink="http://www.w3.org/1999/xlink" viewBox="0 0 186.457 374.04">
  <defs>
    <style>
      .cls-1 {
        fill: #797979;
      }

      .cls-2 {
        clip-path: url(#clip-path);
      }

      .cls-3 {
        fill: #ce3e33;
      }
    </style>
    <clipPath id="clip-path">
      <path id="Path_296" data-name="Path 296" class="cls-1" d="M0-130.708H186.456v374.04H0Z" transform="translate(0 130.708)"/>
    </clipPath>
  </defs>
  <g id="Group_184" data-name="Group 184" transform="translate(0 130.708)">
    <g id="Group_183" data-name="Group 183" class="cls-2" transform="translate(0 -130.708)">
      <g id="Group_97" data-name="Group 97" transform="translate(74.419 -0.001)">
        <path id="Path_210" data-name="Path 210" class="cls-1" d="M12.537,0c3.174.735,6.493,1.1,9.492,2.278,6.9,2.713,8.465,9.066,8.677,15.379.369,11.109-.638,22.163-8.408,31.075a30.787,30.787,0,0,1-8.333,6.3c-1.228.678-3.594.186-5.039-.558-7.317-3.775-11.535-10.2-13.547-17.9a55.653,55.653,0,0,1-1.471-23.32C-4.7,4.833,1.393.518,12.537,0" transform="translate(6.734)"/>
      </g>
      <g id="Group_98" data-name="Group 98" transform="translate(51.778 70.879)">
        <path id="Path_211" data-name="Path 211" class="cls-1" d="M26.383,14.473c0,5.148-.1,10.3.04,15.444.069,2.544-.824,3.929-3.3,4.75-5.577,1.854-11.135,1.465-16.829.724C-.928,34.45-5.8,29.805-10.312,24.935-14,20.949-14.1,15.414-14.172,10.2c-.011-.89,1.11-1.934,1.926-2.67A21.041,21.041,0,0,0-5.238-3.89c.561-2.667,2.115-4.026,4.979-3.872C6.9-7.376,14.1-7.41,21.209-6.638c4.782.521,5.077,1.414,5.114,6.35.037,4.919.009,9.841.009,14.76Z" transform="translate(14.172 7.774)"/>
      </g>
      <g id="Group_99" data-name="Group 99" transform="translate(119.297 187.713)">
        <path id="Path_212" data-name="Path 212" class="cls-1" d="M2.568,49.081c-.466-6.012-.735-11.023-1.268-16C.462,25.243-.943,17.448-1.347,9.6-1.578,5.043-.54.372.31-4.172c1.391-7.409,3.1-14.76,5.082-22.192.65,3.66,1.1,7.372,1.986,10.974,2.272,9.22,5.157,18.312,7.028,27.609C17.194,26.081,13.2,38.135,2.568,49.081" transform="translate(1.38 26.364)"/>
      </g>
      <g id="Group_100" data-name="Group 100" transform="translate(117.347 255.844)">
        <path id="Path_213" data-name="Path 213" class="cls-1" d="M9.418,0l7.509,6.19c-1.027,8.679-2.564,18.083-3.1,27.541-.329,5.826.658,11.764,1.442,17.6,1.231,9.166.169,18.183-1.136,27.214C13.8,80.9,13.53,83.274,13,85.583A8.966,8.966,0,0,1,11.358,88.1l-.973-.486c.246-3.829.229-7.695.79-11.478A68.922,68.922,0,0,0,4.728,35.41C1.4,28.465-1.865,21.494-5.059,14.746-.191,9.79,4.765,4.739,9.418,0" transform="translate(5.059)"/>
      </g>
      <g id="Group_101" data-name="Group 101" transform="translate(46.452 255.347)">
        <path id="Path_214" data-name="Path 214" class="cls-1" d="M0,3.561C4.945,4.569,6.127.834,7.552-1.913Q15.012,5.7,22.161,13c-4.676,11.332-10.1,23.025-14.331,35.132C3.48,60.568,6.516,73.549,7.243,86.314l-.89.4C5.763,86,4.782,85.359,4.642,84.566,2.092,70.192.721,55.912,3.506,41.244c1.3-6.865-.023-14.308-.681-21.442C2.332,14.447,1.007,9.164,0,3.561" transform="translate(0 1.913)"/>
      </g>
      <g id="Group_102" data-name="Group 102" transform="translate(51.07 187.782)">
        <path id="Path_215" data-name="Path 215" class="cls-1" d="M6.268,0C7.684,6.507,9.43,13.985,10.9,21.514c.9,4.644,1.992,9.389,1.886,14.062-.129,5.5-1.668,10.96-2.221,16.475-.744,7.44-1.13,14.918-1.726,23.116C5.037,70.932.865,67.787.15,62.083c-.2-1.634-1.3-3.136-1.8-4.762-3.056-9.864-1.6-19.519,1.065-29.24C2.033,18.543,4.125,8.865,6.268,0" transform="translate(3.367)"/>
      </g>
      <g id="Group_103" data-name="Group 103" transform="translate(93.872 155.582)">
        <path id="Path_216" data-name="Path 216" class="cls-1" d="M0,32.226V-14.707c6.244-1.133,12.185-4.247,18.581-1.5C20.89,3.081,11.375,18,1.11,32.636.738,32.5.369,32.364,0,32.226" transform="translate(0 17.311)"/>
      </g>
      <g id="Group_104" data-name="Group 104" transform="translate(73.669 155.803)">
        <path id="Path_217" data-name="Path 217" class="cls-1" d="M12.238,1.5v48.13C6.1,44.7,3.73,37.749.479,31.322A65.255,65.255,0,0,1-6.572,2.748C-6.623.2-5.653-.975-3.258-.783.1-.514,3.453-.062,6.8.4c1.668.229,3.311.655,5.443,1.093" transform="translate(6.574 0.803)"/>
      </g>
      <g id="Group_105" data-name="Group 105" transform="translate(60.611 150.912)">
        <path id="Path_218" data-name="Path 218" class="cls-1" d="M8.071,2.351C5.744,21.667,14.561,37.9,24.663,54.084c-7.523-.933-13.473-4.765-18.28-9.916C2.714,40.237.11,35.3-2.861,30.739c-2.833-4.355-.7-9.066-.793-13.621C-3.768,11.592-4.071,6.069-4.274.543-4.3-.127-4.223-.8-4.2-1.263L8.071,2.351" transform="translate(4.335 1.263)"/>
      </g>
      <g id="Group_106" data-name="Group 106" transform="translate(96.253 150.613)">
        <path id="Path_219" data-name="Path 219" class="cls-1" d="M0,36.79c4.8-8.725,9.6-16.809,13.776-25.2,4.353-8.754,3.7-18.389,3.417-27.134,4.393-1.577,8.25-2.965,11.73-4.215,0,2.616-.077,5.921.02,9.22.16,5.509.527,11.014.612,16.526a12.083,12.083,0,0,1-.933,5.268C23.411,22.015,15.779,30.463,4.659,35.382A42.044,42.044,0,0,1,0,36.79" transform="translate(0 19.762)"/>
      </g>
      <g id="Group_107" data-name="Group 107" transform="translate(30.803 69.356)">
        <path id="Path_220" data-name="Path 220" class="cls-1" d="M.215,22.386c-.092-7-.584-13.344-.16-19.625C.684-6.608,7.775-9.879,15.141-11.43a22.758,22.758,0,0,1,14.68,1.454c-1.494,3.317-2.235,7.332-4.6,9.773C18.111,7.125,10.371,13.847,2.856,20.784a21.005,21.005,0,0,1-2.641,1.6" transform="translate(0.115 12.025)"/>
      </g>
      <g id="Group_108" data-name="Group 108" transform="translate(125.15 69.446)">
        <path id="Path_221" data-name="Path 221" class="cls-1" d="M19.011,22.209c-3.746-3.116-7.409-5.972-10.849-9.071C4.228,9.589.1,6.141-3.215,2.057c-2.813-3.465-4.6-7.775-7-12,9.137-3.305,16.941-2.424,24.252,2.163A11.146,11.146,0,0,1,19.715,2.675c-.089,2.175,1.013,4.4.881,6.565-.258,4.23-1,8.433-1.585,12.969" transform="translate(10.212 11.93)"/>
      </g>
      <g id="Group_109" data-name="Group 109" transform="translate(127.223 183.058)">
        <path id="Path_222" data-name="Path 222" class="cls-1" d="M0,0C15.387,24.044,17.236,49.627,13.5,76.169,9,76.832,4.539,72.222,6.267,68.353c5.016-11.226,4.178-22.338.864-33.856C4.264,24.539,2.444,14.274.212,4.132A28.465,28.465,0,0,1,0,0"/>
      </g>
      <g id="Group_110" data-name="Group 110" transform="translate(101.011 194.655)">
        <path id="Path_223" data-name="Path 223" class="cls-1" d="M5.56,35.885c-3.428-4.962-5.529-9.172-6.247-14a2.113,2.113,0,0,0-.335-.959C-4.784,15.974-2.509,11.933.51,7.586c6.133-8.82,11.9-17.894,17.811-26.862.278.1.555.195.833.295C14.7-1.01,10.248,16.964,5.56,35.885" transform="translate(2.987 19.276)"/>
      </g>
      <g id="Group_111" data-name="Group 111" transform="translate(44.2 183.118)">
        <path id="Path_224" data-name="Path 224" class="cls-1" d="M1.029,50.017C-.645,35.362-1.389,21.023.823,6.683,2.4-3.525,6.772-12.756,11.365-21.873c.847-1.686,1.771-3.331,2.661-4.994.3.083.6.16.89.24C13.6-19.7,12.418-12.739,10.922-5.848,8.979,3.1,6.8,11.994,4.689,20.905c-1.491,6.3.449,12.242,2.47,17.945,2.075,5.861.6,9.581-6.13,11.166" transform="translate(0.553 26.867)"/>
      </g>
      <g id="Group_112" data-name="Group 112" transform="translate(63.527 194.469)">
        <path id="Path_225" data-name="Path 225" class="cls-1" d="M.292,0C3.223,4.4,6.17,8.791,9.078,13.207c3.491,5.305,6.731,10.788,10.494,15.888,2.415,3.271,3.036,6.2,1.21,9.887-2.475,5-4.642,10.153-7.832,15.284C10.64,45.371,8.222,36.509,6.056,27.581,3.855,18.5,1.9,9.36-.157.243L.292,0" transform="translate(0.157)"/>
      </g>
      <g id="Group_113" data-name="Group 113" transform="translate(40.729 264.222)">
        <path id="Path_226" data-name="Path 226" class="cls-1" d="M3.094,0C5.775,11.292,7.2,21.849,6.493,32.574c-.472,7.126-1.9,14.231-1.837,21.339S6.1,68.124,6.905,75.227c.123,1.09.238,2.181.381,3.5H2.559c.2-2.095.715-4.1.512-6.027Q1.77,60.384.106,48.1c-2.075-15.3-3.188-30.537,1.68-45.566A21.093,21.093,0,0,1,3.094,0" transform="translate(1.662)"/>
      </g>
      <g id="Group_114" data-name="Group 114" transform="translate(136.864 264.249)">
        <path id="Path_227" data-name="Path 227" class="cls-1" d="M2.4,51.216H-1.289c.515-4.3.893-8.428,1.52-12.52C1.767,28.706,1.3,18.808.216,8.763-.642.814-.07-7.339.385-15.375.62-19.45,2-23.462,3.527-27.511c1.127,4.6,2.739,9.152,3.291,13.822C8.6,1.377,6.569,16.252,4.145,31.124,3.1,37.571,2.981,44.176,2.4,51.216" transform="translate(1.289 27.511)"/>
      </g>
      <g id="Group_115" data-name="Group 115" transform="translate(116.937 274.777)">
        <path id="Path_228" data-name="Path 228" class="cls-1" d="M0,0C14.792,28,17.88,34.878,14.946,61.225c-1.439-5.846-2.8-12.3-4.667-18.6a61.015,61.015,0,0,0-4.5-10.242C3.328,27.6,1.245,22.83,1.136,17.276,1.022,11.512.4,5.76,0,0"/>
      </g>
      <g id="Group_116" data-name="Group 116" transform="translate(53.608 274.702)">
        <path id="Path_229" data-name="Path 229" class="cls-1" d="M10.182,0c-1.365,9.255.738,18.858-3.194,27.7C4.825,32.557,1.94,37.153.289,42.169c-2.132,6.482-3.357,13.261-4.871,19.5C-5.24,51.441-6.7,40.7-3.337,30.082A154.986,154.986,0,0,1,10.182,0" transform="translate(5.469)"/>
      </g>
      <g id="Group_117" data-name="Group 117" transform="translate(15.199 132.761)">
        <path id="Path_230" data-name="Path 230" class="cls-1" d="M0,35.649c4.536-18.523,3.165-38.6,15.238-54.8C18.595-14.078,19-8.117,16.64-2.122c-3.268,8.3-7,16.426-10.365,24.693-1.568,3.863-2.716,7.9-4.1,11.836a12.1,12.1,0,0,1-1,1.837c-.392-.2-.784-.4-1.173-.6" transform="translate(0 19.149)"/>
      </g>
      <g id="Group_118" data-name="Group 118" transform="translate(153.207 132.731)">
        <path id="Path_231" data-name="Path 231" class="cls-1" d="M11.713,36.233c-1.127-.635-1.806-.776-1.946-1.13C4.891,22.835.012,10.57-4.741-1.744-7.159-8-6.776-14.126-3.4-19.463c2.152,3.737,4.919,7.477,6.55,11.664C4.851-3.426,5.658,1.333,6.517,5.989c1.8,9.773,3.38,19.588,5.2,30.245" transform="translate(6.292 19.463)"/>
      </g>
      <g id="Group_119" data-name="Group 119" transform="translate(79.73 48.244)">
        <path id="Path_232" data-name="Path 232" class="cls-1" d="M0,.1c12.159,11.824,15.5,11.06,27.06-.155-.793,1.514-1.5,3.079-2.4,4.53a21.881,21.881,0,0,0-3.268,14.343c.24,2.095-.512,3.016-2.607,3.488a31.255,31.255,0,0,0-5.406,2.321c-1.127-.618-2.464-1.917-3.883-2.015C5.62,22.344,5.283,20.1,5.623,17.062,6.256,11.415,3.743,6.72.97,2.109.589,1.474.321.77,0,.1" transform="translate(0 0.054)"/>
      </g>
      <g id="Group_120" data-name="Group 120" transform="translate(144.896 144.114)">
        <path id="Path_233" data-name="Path 233" class="cls-1" d="M14.221,28.859c-.976-.818-2.278-1.451-2.873-2.49C8.094,20.689,5.29,14.731,1.81,9.2-2.917,1.685-5.4-6.56-7.639-14.993c5.174-1.3,6.273-.215,8.024,4.393C3.833-1.523,7.9,7.316,11.554,16.319c1.514,3.726,2.621,7.615,3.915,11.432q-.622.554-1.248,1.107" transform="translate(7.639 15.502)"/>
      </g>
      <g id="Group_121" data-name="Group 121" transform="translate(18.371 144.117)">
        <path id="Path_234" data-name="Path 234" class="cls-1" d="M15.089.149C12.779,9.029,10.2,17.456,5.239,25.1a174.37,174.37,0,0,0-8.88,16.383c-.881,1.74-1.617,2.95-4.464,1.76,1.485-4.327,2.8-8.805,4.547-13.1,2.4-5.866,5.18-11.573,7.689-17.4a79.869,79.869,0,0,0,2.9-7.958C8.553-.094,9.068-.475,15.089.149" transform="translate(8.105 0.08)"/>
      </g>
      <g id="Group_122" data-name="Group 122" transform="translate(64.404 224.902)">
        <path id="Path_235" data-name="Path 235" class="cls-1" d="M2.975,0c.269,1.016.578,2.026.8,3.053C5.276,9.9,5.909,17.09,8.5,23.488c2.318,5.735-.18,9.661-2.143,14.174-.81,1.866-1.585,3.749-2.452,5.806A42.5,42.5,0,0,1-.238,40.527a3.606,3.606,0,0,1-1.351-2.47c.8-5.989,1.894-11.939,2.719-17.925a85.231,85.231,0,0,0,.661-9.123C1.9,7.406,1.816,3.8,1.816.195,2.2.129,2.589.063,2.975,0" transform="translate(1.598)"/>
      </g>
      <g id="Group_123" data-name="Group 123" transform="translate(110.512 224.978)">
        <path id="Path_236" data-name="Path 236" class="cls-1" d="M3.963,28.236C1.98,23.671.069,19.365-1.746,15.018A4.2,4.2,0,0,1-2.04,12.5C-.919,8.407.558,4.41,1.517.286,2.7-4.8,3.5-9.979,4.464-15.118l.858-.049c.114,1.007.258,2.009.341,3.019C6.221-5.374,6.682,1.4,7.349,8.167c.363,3.686.976,7.357,1.628,11.006.767,4.272-1.408,6.845-5.014,9.063" transform="translate(2.129 15.167)"/>
      </g>
      <g id="Group_124" data-name="Group 124" transform="translate(95.602 187.251)">
        <path id="Path_237" data-name="Path 237" class="cls-1" d="M18.583,0C11.689,13.533,2.615,25.692-5.4,38.524c-.3-.052-.6-.1-.9-.152C-7.624,32.786-8.946,27.2-9.982,22.816-3.975,19.276,1.6,16.772,6.2,13.063,10.831,9.335,14.5,4.4,18.583,0" transform="translate(9.982)"/>
      </g>
      <g id="Group_125" data-name="Group 125" transform="translate(93.694 114.357)">
        <path id="Path_238" data-name="Path 238" class="cls-1" d="M11.195,10.7C-7.294,8.939-6.4,6.81-5.755-5.747l16.95,2.218Z" transform="translate(6.013 5.747)"/>
      </g>
      <g id="Group_126" data-name="Group 126" transform="translate(63.169 190.658)">
        <path id="Path_239" data-name="Path 239" class="cls-1" d="M18.268,11.626c-1.431,5.855-2.8,11.467-4.41,18.06C5.548,17.069-2.132,5.413-9.813-6.245-2.4,2.517,6.109,9.331,18.268,11.626" transform="translate(9.813 6.245)"/>
      </g>
      <g id="Group_127" data-name="Group 127" transform="translate(75.421 114.457)">
        <path id="Path_240" data-name="Path 240" class="cls-1" d="M0,10.768V-3.758L16.889-5.784a94.573,94.573,0,0,1-.077,9.518c-.263,2.707-2.381,4.33-4.913,4.9C8.184,9.483,4.393,10,0,10.768" transform="translate(0 5.784)"/>
      </g>
      <g id="Group_128" data-name="Group 128" transform="translate(93.711 143.113)">
        <path id="Path_241" data-name="Path 241" class="cls-1" d="M11.886,0c.358,4.384.652,7.973.987,12.045-5.935-1.617-11.2-.776-16.386,1.01-1.94.667-2.827-.269-2.85-2.143-.043-3.182-.011-6.37-.011-9.718L11.886,0" transform="translate(6.385)"/>
      </g>
      <g id="Group_129" data-name="Group 129" transform="translate(93.621 128.675)">
        <path id="Path_242" data-name="Path 242" class="cls-1" d="M.042,0C4.524,1.085,8.467,2.49,12.514,2.913c6.21.644,4.836.426,5.909,5.989a19.466,19.466,0,0,1,.037,3.82c-5.363.635-10.4,1.405-15.473,1.674-.924.049-2.71-1.877-2.81-3.008C-.172,7.452.042,3.457.042,0" transform="translate(0.023)"/>
      </g>
      <g id="Group_130" data-name="Group 130" transform="translate(74.247 128.563)">
        <path id="Path_243" data-name="Path 243" class="cls-1" d="M.229,8.394C-.652.241-.412.041,7.343-1.527c3.571-.724,7.04-1.949,10.683-2.982,0,3.783.16,8.03-.137,12.248-.057.81-1.94,2.178-2.919,2.126C10.142,9.6,5.337,8.944.229,8.394" transform="translate(0.123 4.509)"/>
      </g>
      <g id="Group_131" data-name="Group 131" transform="translate(74.257 143.077)">
        <path id="Path_244" data-name="Path 244" class="cls-1" d="M0,0,17.9,1.216V12.992C11.973,12.279,6.23,11.587,0,10.84Z"/>
      </g>
      <g id="Group_132" data-name="Group 132" transform="translate(58.166 50.747)">
        <path id="Path_245" data-name="Path 245" class="cls-1" d="M13.335,0A21.325,21.325,0,0,1,18.5,17.227c-.083.707-1.643,1.754-2.538,1.777-6.25.146-12.505.112-18.755.029a10.049,10.049,0,0,1-4.37-1.228A75.392,75.392,0,0,1,.36,15.35C8.181,13.644,12.614,8.971,13.335,0" transform="translate(7.163)"/>
      </g>
      <g id="Group_133" data-name="Group 133" transform="translate(102.395 50.574)">
        <path id="Path_246" data-name="Path 246" class="cls-1" d="M16.749,12.253H-8.54C-9.782,5.76-8.6-.292-3.675-6.582-3.143,7.231,7.48,8.493,16.877,11.249l-.129,1" transform="translate(8.997 6.582)"/>
      </g>
      <g id="Group_134" data-name="Group 134" transform="translate(23.008 145.402)">
        <path id="Path_247" data-name="Path 247" class="cls-1" d="M12.929,0c1.248,7-.269,13.49-3.216,19.534C6.937,25.228,3.451,30.577.4,36.143c-1.322,2.415-2.335,5-3.649,7.847l-3.7-.982C-1.207,28.153,10.7,16.291,12.929,0" transform="translate(6.945)"/>
      </g>
      <g id="Group_135" data-name="Group 135" transform="translate(142.626 145.823)">
        <path id="Path_248" data-name="Path 248" class="cls-1" d="M.171.1c3.242,7.452,6.447,15.4,10.147,23.119,2.59,5.4,5.875,10.465,8.8,15.708a28.748,28.748,0,0,1,1.336,3.357c-1.417.5-2.627.919-3.036,1.059-3.377-5.952-6.519-11.633-9.8-17.23C3.2,18.558.228,10.566-.089,1.726A5.4,5.4,0,0,1,.071.375C.142.052.314-.246.171.1" transform="translate(0.092 0.054)"/>
      </g>
      <g id="Group_136" data-name="Group 136" transform="translate(112.78 130.318)">
        <path id="Path_249" data-name="Path 249" class="cls-1" d="M.028,2.05C3.5,1.094,6.67.256,9.821-.663c2.229-.652,4.4-.85,5.8,1.385,1.019,1.631-.489,6.857-2.341,7.638a76.864,76.864,0,0,1-10,3.405C1.09,12.355-.169,11.316,0,8.8.143,6.646.028,4.471.028,2.05" transform="translate(0.015 1.101)"/>
      </g>
      <g id="Group_137" data-name="Group 137" transform="translate(28.385 365.955)">
        <path id="Path_250" data-name="Path 250" class="cls-1" d="M14.589.764c.318,5.157-1.193,7.074-5.615,6.9C4.442,7.486-.074,6.845-4.6,6.43c-2.146-.195-3.717-1.262-3.1-3.46C-7.154,1-6.269-1.053-3.122-.22A42.362,42.362,0,0,0,5.564.73c2.922.152,5.858.034,9.026.034" transform="translate(7.837 0.411)"/>
      </g>
      <g id="Group_138" data-name="Group 138" transform="translate(135.562 366.289)">
        <path id="Path_251" data-name="Path 251" class="cls-1" d="M0,3.34V-.535c3.388,0,6.759.157,10.107-.057,2.418-.155,4.793-.979,7.214-1.176,1.273-.1,3.062.086,3.786.89a4.354,4.354,0,0,1,.69,3.909c-.418.881-2.261,1.293-3.543,1.517-2.112.366-4.436-.023-6.393.678C7.457,6.805,3.734,5.569,0,3.34" transform="translate(0 1.794)"/>
      </g>
      <g id="Group_139" data-name="Group 139" transform="translate(57.837 131.342)">
        <path id="Path_252" data-name="Path 252" class="cls-1" d="M9.292,7.482C5.686,6.574,2.45,5.991-.615,4.92A6.241,6.241,0,0,1-4.979-.949c-.157-2.358,1.208-3.245,3.062-3.042,3.9.421,7.767,1.2,12.1,1.906-.069,1.328-.106,2.87-.238,4.4C9.816,3.764,9.584,5.2,9.292,7.482" transform="translate(4.991 4.019)"/>
      </g>
      <g id="Group_140" data-name="Group 140" transform="translate(11.056 193.15)">
        <path id="Path_253" data-name="Path 253" class="cls-1" d="M6.439,0C7.495,4.893,8.468,9.423,9.475,14.094c-4.181,1.5-8.01.435-11.7-1.065C-4.413,12.139-3.5,6.593-.993,5.1.172,4.407,1.414,3.84,2.536,3.088,3.617,2.364,4.59,1.479,6.439,0" transform="translate(3.459)"/>
      </g>
      <g id="Group_141" data-name="Group 141" transform="translate(162.155 193.679)">
        <path id="Path_254" data-name="Path 254" class="cls-1" d="M2.089,0C4.936,1.743,7.065,2.933,9.063,4.321a5.429,5.429,0,0,1,2.215,2.492c1.522,5.471,1.474,5.615-4.353,6.811-2.452.5-5.037.372-8.047.558C.083,8.86,1.1,4.353,2.089,0" transform="translate(1.122)"/>
      </g>
      <g id="Group_142" data-name="Group 142" transform="translate(58.571 123.433)">
        <path id="Path_255" data-name="Path 255" class="cls-1" d="M9.636,5.029C4.041,4.9-1.576,6.1-5.176.29-3.542-2-1.613-3.221,1.58-2.489A20.628,20.628,0,0,0,8-2.575c2.833-.275,3.411,1,2.721,3.431-.369,1.3-.684,2.607-1.09,4.172" transform="translate(5.176 2.701)"/>
      </g>
      <g id="Group_143" data-name="Group 143" transform="translate(113.476 141.49)">
        <path id="Path_256" data-name="Path 256" class="cls-1" d="M8.333,0C8.8,5.615,2.378,11.83-2.9,10.923A2.513,2.513,0,0,1-4.364,9.114a52.09,52.09,0,0,1-.069-5.672C-.3,2.327,3.9,1.2,8.333,0" transform="translate(4.476)"/>
      </g>
      <g id="Group_144" data-name="Group 144" transform="translate(59.916 141.446)">
        <path id="Path_257" data-name="Path 257" class="cls-1" d="M8.455,6.709C-1.678,6.4-5.644,2.6-4.282-3.6c2.006.589,3.983,1.279,6.009,1.74,1.986.455,4.026.681,6.324,1.053.14,2.59.272,5.039.4,7.52" transform="translate(4.542 3.604)"/>
      </g>
      <g id="Group_145" data-name="Group 145" transform="translate(112.213 123.176)">
        <path id="Path_258" data-name="Path 258" class="cls-1" d="M0,5.939C.372,2.705.627.473.939-2.222,5.872-1.458,11.1-5.8,16.094-.563,11.7,4.2,5.763,3.879,0,5.939" transform="translate(0 3.19)"/>
      </g>
      <g id="Group_146" data-name="Group 146" transform="translate(63.587 115.392)">
        <path id="Path_259" data-name="Path 259" class="cls-1" d="M4.1,4.807a16.206,16.206,0,0,1-3.72-.361c-1-.332-2.5-1.173-2.564-1.889C-2.3,1.285-1.8-.91-.982-1.222c2.347-.9,5.114-1.691,7.449-1.219C7.6-2.212,8.267.9,8.874,2.784c.137.418-.761,1.571-1.362,1.734A13.347,13.347,0,0,1,4.106,4.6L4.1,4.807" transform="translate(2.201 2.582)"/>
      </g>
      <g id="Group_147" data-name="Group 147" transform="translate(40.141 307.303)">
        <path id="Path_260" data-name="Path 260" class="cls-1" d="M0,0C1.208,11.83,6.015,23.394,3.188,35.579c-.092.389-.721.658-1.356,1.208C1.208,24.264.6,12.133,0,0"/>
      </g>
      <g id="Group_148" data-name="Group 148" transform="translate(142.499 307.103)">
        <path id="Path_261" data-name="Path 261" class="cls-1" d="M2.457.045Q1.5,18.2.549,36.362c-.175.137-.346.272-.515.406-.478-1.394-1.411-2.807-1.351-4.181C-1.068,26.71-.7,20.823-.044,14.977c.564-5.025,1.574-10,2.384-15a1.248,1.248,0,0,1,.117.069" transform="translate(1.32 0.024)"/>
      </g>
      <g id="Group_149" data-name="Group 149" transform="translate(112.787 115.073)">
        <path id="Path_262" data-name="Path 262" class="cls-1" d="M.225,5.2a20.293,20.293,0,0,1-.18-3.091C.25.4-1.175-2,1.793-2.645,4.886-3.312,9.107-1.63,9.585.786c.183.927-1.045,2.807-2.017,3.148C5.384,4.7,2.955,4.781.225,5.2" transform="translate(0.121 2.792)"/>
      </g>
      <g id="Group_150" data-name="Group 150" transform="translate(168.194 189.762)">
        <path id="Path_263" data-name="Path 263" class="cls-1" d="M7.139,3.9C4.893,6.671,2.847,5.638.927,4.788A10.888,10.888,0,0,1-3.059,2.353c-.73-.87-.549-2.5-.776-3.789,1.285-.2,2.962-1.013,3.78-.486A76.14,76.14,0,0,1,7.139,3.9" transform="translate(3.835 2.097)"/>
      </g>
      <g id="Group_151" data-name="Group 151" transform="translate(8.084 188.704)">
        <path id="Path_264" data-name="Path 264" class="cls-1" d="M5.041,0c1.07.824,2.095,1.216,2.215,1.8.229,1.087.358,2.942-.223,3.317A43.812,43.812,0,0,1-.474,8.828c-.535.215-1.837-.478-2.169-1.09-.249-.461.263-1.7.8-2.175C.307,3.674,2.6,1.949,5.041,0" transform="translate(2.708)"/>
      </g>
      <g id="Group_152" data-name="Group 152" transform="translate(161.604 208.821)">
        <path id="Path_265" data-name="Path 265" class="cls-1" d="M1.337,7.411C.673,3.723.006.037-.718-3.981c2.4.229,4.476.429,6.61.635Q7.425,3.814,8.972,11.02l-1.451.361c-.69-2.57-1.388-5.137-2.063-7.709C5,1.925,4.668.134,4.078-1.566,3.892-2.1,3.042-2.4,2.5-2.8a5.054,5.054,0,0,0-.7,1.651c-.072,2.822-.031,5.646-.031,8.47-.143.029-.286.057-.426.089" transform="translate(0.718 3.981)"/>
      </g>
      <g id="Group_153" data-name="Group 153" transform="translate(15.173 208.754)">
        <path id="Path_266" data-name="Path 266" class="cls-1" d="M0,9.822Q1.52,2.671,3.036-4.483c2.1-.255,4.1-.5,6.553-.793C8.911-1.31,8.253,2.545,7.595,6.4l-.484-.086c0-2.584.072-5.171-.04-7.755A10.255,10.255,0,0,0,6.25-4.023c-.635.776-1.6,1.454-1.84,2.335C3.528,1.46,2.922,4.68,2.146,7.859a15.683,15.683,0,0,1-.927,2.286C.813,10.037.406,9.928,0,9.822" transform="translate(0 5.276)"/>
      </g>
      <g id="Group_154" data-name="Group 154" transform="translate(43.897 346.805)">
        <path id="Path_267" data-name="Path 267" class="cls-1" d="M0,11.851C2.7,5.524,5.4-.8,7.772-6.366A29.064,29.064,0,0,1,3.156,10.721c-.587.921-1.883,1.385-2.85,2.06Z" transform="translate(0 6.366)"/>
      </g>
      <g id="Group_155" data-name="Group 155" transform="translate(35.887 344.555)">
        <path id="Path_268" data-name="Path 268" class="cls-1" d="M6.674,0c.69,9.169-5.4,14.683-10.259,20.81C-.228,14,3.128,7.191,6.674,0" transform="translate(3.585)"/>
      </g>
      <g id="Group_156" data-name="Group 156" transform="translate(38.767 344.494)">
        <path id="Path_269" data-name="Path 269" class="cls-1" d="M0,13.8C3.714,6.821,9.644,1.181,8.88-7.373c.444-.014.887-.029,1.331-.04a9.859,9.859,0,0,1,.547,3.065C9.761,2.408,3.365,13.42,0,13.8" transform="translate(0 7.413)"/>
      </g>
      <g id="Group_157" data-name="Group 157" transform="translate(137.57 344.597)">
        <path id="Path_270" data-name="Path 270" class="cls-1" d="M.771,0C-.772,8.2,6.477,13.381,7.925,20.512,1.644,14.523-2.592,2.5.771,0" transform="translate(0.414)"/>
      </g>
      <g id="Group_158" data-name="Group 158" transform="translate(134.739 346.682)">
        <path id="Path_271" data-name="Path 271" class="cls-1" d="M0,0C2.432,5.769,5.191,12.308,8.061,19.116.569,14.148.157,6.613,0,0"/>
      </g>
      <g id="Group_159" data-name="Group 159" transform="translate(48.888 346.15)">
        <path id="Path_272" data-name="Path 272" class="cls-1" d="M0,12.745C1.734,6.172,3.434-.267,5.134-6.7,4.925-6.752,4.71-6.8,4.5-6.846c.341,2.882.529,5.792,1.059,8.639.8,4.3-2.747,7.014-3.7,10.665-.077.3-1.54.243-1.857.286" transform="translate(0 6.846)"/>
      </g>
      <g id="Group_160" data-name="Group 160" transform="translate(140.535 345.072)">
        <path id="Path_273" data-name="Path 273" class="cls-1" d="M.1,0c2.578,5.637,5.214,11.392,7.8,17.047C4.814,17.8-1.1,5.574.1,0" transform="translate(0.056)"/>
      </g>
      <g id="Group_161" data-name="Group 161" transform="translate(24.659 190.67)">
        <path id="Path_274" data-name="Path 274" class="cls-1" d="M0,9.286V-4.988C3.548-4.516,4.141-3.737,3.174.286,2.447,3.317,1.545,6.3.718,9.312L0,9.286" transform="translate(0 4.988)"/>
      </g>
      <g id="Group_162" data-name="Group 162" transform="translate(132.295 347.735)">
        <path id="Path_275" data-name="Path 275" class="cls-1" d="M.407,0C1.626,5.245,3.031,11.286,4.436,17.33l-.856.527A28.869,28.869,0,0,1,.87,12.8,25.267,25.267,0,0,1-.214,5.967,39.228,39.228,0,0,1,.407,0" transform="translate(0.218)"/>
      </g>
      <g id="Group_163" data-name="Group 163" transform="translate(158.087 190.351)">
        <path id="Path_276" data-name="Path 276" class="cls-1" d="M1.971,9.517C1.024,6.509-.072,3.539-.822.483c-.784-3.2.381-5.366,3.448-5.595V9.282Z" transform="translate(1.059 5.112)"/>
      </g>
      <g id="Group_164" data-name="Group 164" transform="translate(177.251 203.812)">
        <path id="Path_277" data-name="Path 277" class="cls-1" d="M3.46,10.919C1.766,5.321-2.887.86-1.653-5.865Q1.557,2.274,4.771,10.412c-.438.172-.876.338-1.311.507" transform="translate(1.859 5.865)"/>
      </g>
      <g id="Group_165" data-name="Group 165" transform="translate(9.109 208.048)">
        <path id="Path_278" data-name="Path 278" class="cls-1" d="M2.355,0C3.448.289,4.3.509,4.736.624L-.218,16.349c-.349-.1-.7-.192-1.047-.292L2.355,0" transform="translate(1.265)"/>
      </g>
      <g id="Group_166" data-name="Group 166" transform="translate(171.323 207.894)">
        <path id="Path_279" data-name="Path 279" class="cls-1" d="M1.532,0C2.745,5.489,3.916,10.794,5.089,16.1c-.326.1-.65.192-.973.292C2.479,11.206.84,6.021-.823.758-.528.661.4.366,1.532,0" transform="translate(0.823)"/>
      </g>
      <g id="Group_167" data-name="Group 167" transform="translate(-0.001 197.485)">
        <path id="Path_280" data-name="Path 280" class="cls-1" d="M4.129,0C5.414.687,6.573,1.3,7.7,1.909,4.787,4.247,1.774,6.673-1.242,9.1l-.976-.89C-.132,5.512,1.951,2.816,4.129,0" transform="translate(2.218)"/>
      </g>
      <g id="Group_168" data-name="Group 168" transform="translate(2.583 203.764)">
        <path id="Path_281" data-name="Path 281" class="cls-1" d="M4.142,0c.587,1.826,1.379,2.956,1.09,3.6-2,4.45-4.224,8.8-6.376,13.186-.361-.157-.721-.321-1.082-.481C-.233,11.212,1.756,6.118,4.142,0" transform="translate(2.225)"/>
      </g>
      <g id="Group_169" data-name="Group 169" transform="translate(176.69 198.104)">
        <path id="Path_282" data-name="Path 282" class="cls-1" d="M5.762,5.54l-8.857-7.1C.233-3.569.262-3.589,2.643-.661c1.4,1.72,2.69,3.523,4.026,5.288-.3.3-.6.61-.907.913" transform="translate(3.095 2.976)"/>
      </g>
      <g id="Group_170" data-name="Group 170" transform="translate(126.111 120.04)">
        <path id="Path_283" data-name="Path 283" class="cls-1" d="M2.288,7.069-.943,5.289C3.567,2.931,2.328.63-1.229-1.579.185-2.481,1.2-3.13,2.242-3.8,2.872-2.372,3.456-1.056,4.3.845,3.816,2.333,3.1,4.55,2.288,7.069" transform="translate(1.229 3.797)"/>
      </g>
      <g id="Group_171" data-name="Group 171" transform="translate(59.536 110.628)">
        <path id="Path_284" data-name="Path 284" class="cls-1" d="M.76,0Q3.532,1.618,6.3,3.239c.017.335.034.667.054,1-1.683.092-3.594.707-4.965.1C.413,3.9.164,1.826-.408.481L.76,0" transform="translate(0.408)"/>
      </g>
      <g id="Group_172" data-name="Group 172" transform="translate(111.749 23.144)">
        <path id="Path_285" data-name="Path 285" class="cls-1" d="M0,8.147C.515,4.04,1.019,0,1.568-4.376A11.913,11.913,0,0,1,0,8.147" transform="translate(0 4.376)"/>
      </g>
      <g id="Group_173" data-name="Group 173" transform="translate(56.512 115.113)">
        <path id="Path_286" data-name="Path 286" class="cls-1" d="M0,1.6C.916.582,1.58-.153,2.218-.857c3.4.879,3.66,3.385,3.394,6.931C3.606,4.474,1.949,3.152,0,1.6" transform="translate(0 0.857)"/>
      </g>
      <g id="Group_174" data-name="Group 174" transform="translate(71.832 23.192)">
        <path id="Path_287" data-name="Path 287" class="cls-1" d="M.7,0c.658,4.427,1.253,8.41,1.849,12.42A11.267,11.267,0,0,1,.7,0" transform="translate(0.376)"/>
      </g>
      <g id="Group_175" data-name="Group 175" transform="translate(123.901 114.853)">
        <path id="Path_288" data-name="Path 288" class="cls-1" d="M1.968,0c1.831,4.135,1.4,5.105-2.8,6.556C-1.389,3.789-1.062,1.534,1.968,0" transform="translate(1.057)"/>
      </g>
      <g id="Group_176" data-name="Group 176" transform="translate(56 119.527)">
        <path id="Path_289" data-name="Path 289" class="cls-1" d="M.624,0C1.745.916,2.867,1.831,4.335,3.028L.6,6.27C.2,3.692-.069,1.969-.335.249L.624,0" transform="translate(0.335)"/>
      </g>
      <g id="Group_177" data-name="Group 177" transform="translate(142.908 345.254)">
        <path id="Path_290" data-name="Path 290" class="cls-1" d="M1.054,0a36.174,36.174,0,0,0,.6,4.613C2.11,6.4,2.865,8.1,3.492,9.844l-.813.289Q1.057,5.373-.566.607.245.306,1.054,0" transform="translate(0.566)"/>
      </g>
      <g id="Group_178" data-name="Group 178" transform="translate(130.969 91.036)">
        <path id="Path_291" data-name="Path 291" class="cls-3" d="M16.18,14.178c-.446-4.012-1.359-8.428-5.866-11.186C5.454.019,1.316-4.128-2.953-7.616-4.69-1.887-6.493,4.048-8.3,9.992l-.395,7.346c.132.409.341,1.067.627,1.966,1.654,5.18,5.635,17.385,9.438,23.34.5.787,1.434,1.817,2.192,1.837,2.767.086,5.543-.212,8.4-.369.343-1.829.206-4.355,1.268-6.19,4.373-7.552,3.835-15.751,2.942-23.743" transform="translate(8.691 7.616)"/>
      </g>
      <g id="Group_179" data-name="Group 179" transform="translate(118.747 105.368)">
        <path id="Path_292" data-name="Path 292" class="cls-1" d="M1.67,4.47C.654,5.165-.064,5.655-.9,6.221,4.738,9.349,4.738,9.349,6.621,1.846,7.7,4.481,8.764,7.094,9.874,9.81l.776-7.993c.083-1.139.243-2.281.217-3.417a2.059,2.059,0,0,0-.3-.8L7.376.638" transform="translate(0.897 2.401)"/>
      </g>
      <g id="Group_180" data-name="Group 180" transform="translate(93.726 71.043)">
        <path id="Path_293" data-name="Path 293" class="cls-1" d="M23.57,21.883c3.823-3.875,4.272-8.937,4.745-13.9a5.593,5.593,0,0,0-1.531-4.152,23.639,23.639,0,0,1-7.87-12.857c-.4-1.823-1.259-2.767-3.231-2.73-6.957.132-13.942-.189-20.856.386-6.3.527-7.3,2.029-7.4,8.614-.129,8.808-.08,17.622-.074,26.433,0,5.34.421,5.849,5.489,7.343,7.229,2.129,14.145.727,20.973-1.809l6.379-4.232a21.6,21.6,0,0,0,3.377-3.1" transform="translate(12.661 11.754)"/>
      </g>
      <g id="Group_181" data-name="Group 181" transform="translate(29.87 90.614)">
        <path id="Path_294" data-name="Path 294" class="cls-3" d="M16.075,10.876C14.447,5.407,12.818-.056,11.093-5.842,6.345-1.8,1.726,2.431-3.23,6.22a12,12,0,0,0-4.745,8.6,78.587,78.587,0,0,0-.644,11.269,33.1,33.1,0,0,0,1.354,8.365c1.182,4.066,2.776,8.01,4.147,11.867,1.817,0,4.135-.372,6.261.109,2,.449,2.856-.146,3.837-1.686a73.541,73.541,0,0,0,8.925-21.079c.432-2.066,1.531-8.279.169-12.792" transform="translate(8.635 5.842)"/>
      </g>
      <g id="Group_182" data-name="Group 182" transform="translate(55.284 106.599)">
        <path id="Path_295" data-name="Path 295" class="cls-1" d="M1.15.044C.9-.168.2.158-.618.465L-.34,9.442A3.961,3.961,0,0,1,1.285,7.716C2.5,6.986,3,4.557,3.171,2.825,3.257,1.947,2.035.777,1.15.044" transform="translate(0.618 0.024)"/>
      </g>
    </g>
  </g>
</svg>
