<svg xmlns="http://www.w3.org/2000/svg" viewBox="0 0 30 30">
  <defs>
    <style>
      .cls-1 {
        fill: gray;
      }
    </style>
  </defs>
  <g id="twitter" transform="translate(0.077 -0.128)">
    <g id="Group_15" data-name="Group 15" transform="translate(0)">
      <path id="Path_21" data-name="Path 21" class="cls-1" d="M14.923.128a15,15,0,1,0,15,15A14.933,14.933,0,0,0,14.923.128Zm9,11c.009.192,0-.194,0,0,0,5.915-4.767,13-13,13a13.136,13.136,0,0,1-7-2,8.06,8.06,0,0,0,1,0,10.364,10.364,0,0,0,6-2,4.159,4.159,0,0,1-4-3,6.4,6.4,0,0,0,1,0,3.277,3.277,0,0,0,1,0,5.573,5.573,0,0,1-4-5c0-.019,0,.019,0,0,.6.335,1.266.977,2,1a4.991,4.991,0,0,1-2-4c0-.82.615-1.339,1-2a12.575,12.575,0,0,0,9,5,4.382,4.382,0,0,1,0-1c0-2.472,1.528-5,4-5a6.929,6.929,0,0,1,4,2c1.02-.2,1.135-1.487,2-2-.334,1.045-.076,2.446-1,3,.905-.108,1.2-.644,2-1C25.323,9.026,24.8,10.5,23.923,11.128Z" transform="translate(0)"/>
    </g>
  </g>
</svg>
