<svg xmlns="http://www.w3.org/2000/svg" xmlns:xlink="http://www.w3.org/1999/xlink" viewBox="0 0 1031.795 930.661">
  <defs>
    <style>
      .cls-1 {
        fill: url(#linear-gradient);
      }
    </style>
    <linearGradient id="linear-gradient" x1="0.154" y1="1" x2="0.917" y2="0.545" gradientUnits="objectBoundingBox">
      <stop offset="0" stop-color="#b90024"/>
      <stop offset="1" stop-color="#efa34b"/>
    </linearGradient>
  </defs>
  <path id="Path_46" data-name="Path 46" class="cls-1" d="M498.091,885.38c29.886-17.263,59.342-35.21,87-56,68.124-51.418,130.043-109.672,190-170,.557-.557,11.5-10.689,18-17,6.868-6.126,13.946-12.246,21-18,31.556-25.245,63.258-50.941,95-76,26.916-21.161,52.839-43.9,74-71,31.556-40.466,47.515-85.953,49-137,.557-20.6-1.772-41.581-4-62-2.784-25.616-9.018-51.312-17-76-12.994-39.352-32.486-73.671-62-103-29.143-28.957-63.761-48.893-102-63-47.149-17.263-96.253-24.1-146-28-31.185-2.413-62.629-3.7-94-5-12.808-.557-26.192-.629-39-1-27.287-.742-54.713-1.814-82-2-24.317-.186-47.468,4.306-69,16-56.244,30.628-116.816,49.264-179,63-30.442,6.682-60.743,13.575-91,21-24.688,6.126-48.725,13.821-71,27-25.059,14.85-39.916,36.857-44,66a361.119,361.119,0,0,0-3,60c1.114,33.784,2.814,67.216,3,101,.186,24.5-.144,49.5-2,74-2.6,33.041-6.359,66.144-11,99-6.682,46.592-15.958,92.666-18,140-1.671,30.442-.682,60.3,6,90,9.652,43.251,33.791,74.994,75,93,23.017,10.024,46.683,16.431,71,22,43.993,10.024,87.534,22.21,128,43,32.3,16.706,66.731,18.2,102,13,21.9-3.341,42.581-9.832,63-18,10.766-4.269,21.419-9.174,32-14" transform="translate(-0.379 -0.374)"/>
</svg>
