<svg xmlns="http://www.w3.org/2000/svg" xmlns:xlink="http://www.w3.org/1999/xlink" viewBox="0 0 474.522 419.448">
  <defs>
    <style>
      .cls-1 {
        fill: url(#linear-gradient);
      }
    </style>
    <linearGradient id="linear-gradient" x1="0.756" y1="0.849" x2="0.119" y2="0.209" gradientUnits="objectBoundingBox">
      <stop offset="0" stop-color="#efa34b"/>
      <stop offset="1" stop-color="#b90024"/>
    </linearGradient>
  </defs>
  <g id="Group_16" data-name="Group 16" transform="translate(0.466 0.074)">
    <path id="Path_25" data-name="Path 25" class="cls-1" d="M104.982,60c-2.946,1.008-6.131,1.837-9,3-16.438,6.591-31.664,15.292-45,27-16.05,14.112-27.634,32-35,52a171.7,171.7,0,0,0-9,38c-1.628,12.949-2.682,25.051-4,38-.93,9.227-2.38,18.773-3,28-.388,5.35-.775,10.728,0,16,1.241,8.684,6.03,16.72,12,23,8.3,8.684,18.378,14.728,29,20,18.376,9.149,38.228,15.572,58,21,27.6,7.6,55.4,14.479,83,22,20.314,5.505,39.7,12.223,58,23,15.74,9.227,31.183,18.851,47,28,17.678,10.312,36.065,18.682,57,20,8.3.543,16.859.706,25-1,14.267-2.946,27.439-8.867,40-16,14.887-8.451,28.835-17.9,40-31,16.515-19.306,24.147-42.8,25-68,.62-17.988-2.736-35.554-7-53-4.962-19.927-11.254-38.616-18-58-4.885-14.034-9.805-28.044-15-42a59.045,59.045,0,0,0-17-25,237.941,237.941,0,0,1-26-27,433.128,433.128,0,0,1-32-44c-8.374-12.871-16.533-25.68-27-37a59.279,59.279,0,0,0-19-14c-8.839-3.877-17.083-3.946-26-1-9.847,3.257-20.463,6.891-30,11-27.138,11.785-54.234,22.867-83,30-.93.233-1.6.69-3,1" transform="translate(0 0)"/>
  </g>
</svg>
