<svg xmlns="http://www.w3.org/2000/svg" viewBox="0 0 266.768 211">
  <defs>
    <style>
      .cls-1 {
        fill: #efecec;
      }
    </style>
  </defs>
  <g id="logo" transform="translate(-0.081 0.481)">
    <path id="Intersection_6" data-name="Intersection 6" class="cls-1" d="M223.923,210.518,133.465,53.841l-18.534,32.1h0L43.008,210.518H.081L114.932,11.591V10.518a9.985,9.985,0,0,1,.651-3.557,10.055,10.055,0,0,1,1.669-1.206l1.575-.909L121.145.829a10.07,10.07,0,0,1,.9-1.31h16.829l1.73,1h1.326a9.967,9.967,0,0,1,4.208.926l1.964,3.4,1.577.91a10.116,10.116,0,0,1,1.564,1.115h0a10.012,10.012,0,0,1,3.309,9.145l112.3,194.5Z" transform="translate(0 0.001)"/>
    <path id="Rectangle_14" data-name="Rectangle 14" class="cls-1" d="M10,0H27A10,10,0,0,1,37,10V208a0,0,0,0,1,0,0H0a0,0,0,0,1,0,0V10A10,10,0,0,1,10,0Z" transform="translate(114.932 2.519)"/>
    <path id="Intersection_7" data-name="Intersection 7" class="cls-1" d="M.054,16.518a17.976,17.976,0,0,1,12.726-17H24l1.731,1h1.326q.274,0,.544.015a17.6,17.6,0,0,1,9.456,15.987V85.824L18.588,53.84.054,85.942Z" transform="translate(114.878 0.001)"/>
  </g>
</svg>
