<svg xmlns="http://www.w3.org/2000/svg" viewBox="0 0 193.091 206.347">
  <defs>
    <style>
      .cls-1 {
        fill: #de8898;
      }
    </style>
  </defs>
  <g id="weightlifter" transform="matrix(-0.643, 0.766, -0.766, -0.643, 193.091, 56.559)">
    <path id="Path_38" data-name="Path 38" class="cls-1" d="M64,32h6.518V64.589H64Zm0,0" transform="translate(-37.929 -18.964)"/>
    <path id="Path_39" data-name="Path 39" class="cls-1" d="M192.275,16.294H182.5V3.259A3.259,3.259,0,0,0,179.239,0H153.168a3.259,3.259,0,0,0-3.259,3.259v29.33H45.625V3.259A3.259,3.259,0,0,0,42.366,0H16.294a3.259,3.259,0,0,0-3.259,3.259V16.294H3.259A3.259,3.259,0,0,0,0,19.553V71.7a3.259,3.259,0,0,0,3.259,3.259h9.777v9.777a3.259,3.259,0,0,0,3.259,3.259H42.366a3.259,3.259,0,0,0,3.259-3.259V58.66H149.909V84.731a3.259,3.259,0,0,0,3.259,3.259h26.071a3.259,3.259,0,0,0,3.259-3.259V74.955h9.777a3.259,3.259,0,0,0,3.259-3.259V19.553A3.259,3.259,0,0,0,192.275,16.294ZM6.518,68.437V22.812h6.518V68.437ZM39.107,81.472H19.553V6.518H39.107Zm6.518-29.33V39.107h6.518V52.142Zm13.036,0V39.107h6.518V52.142Zm13.036,0V39.107h52.142V52.142Zm58.66,0V39.107h6.518V52.142Zm13.036,0V39.107h6.518V52.142Zm32.589,29.33H156.427V6.518H175.98Zm13.036-13.036H182.5V22.812h6.518Zm0,0"/>
    <path id="Path_40" data-name="Path 40" class="cls-1" d="M400,40h6.518V72.589H400Zm0,0" transform="translate(-237.055 -23.706)"/>
  </g>
</svg>
