<svg xmlns="http://www.w3.org/2000/svg" viewBox="0 0 134.948 43">
  <defs>
    <style>
      .cls-1, .cls-2 {
        fill: #efecec;
      }

      .cls-2 {
        font-size: 35px;
        font-family: HelveticaNeue-Bold, Helvetica Neue;
        font-weight: 700;
        letter-spacing: 0.1em;
      }
    </style>
  </defs>
  <g id="fiatBGlogo" transform="translate(-560.052 -142)">
    <g id="bgLogo" transform="translate(560.104 141.544)">
      <path id="Intersection_6" data-name="Intersection 6" class="cls-1" d="M37.659,35.457,22.406,9.04,7.154,35.457H-.052l19.67-34.07A3.113,3.113,0,0,1,20.44.456H24.2l.091.071a4,4,0,0,1,1.136,1.259l19.439,33.67Z"/>
      <path id="Rectangle_14" data-name="Rectangle 14" class="cls-1" d="M3.5,0h0A3.5,3.5,0,0,1,7,3.5V35H0V3.5A3.5,3.5,0,0,1,3.5,0Z" transform="translate(18.814 0.457)"/>
      <path id="Intersection_7" data-name="Intersection 7" class="cls-1" d="M-.473,2.78l.8-1.392A3.123,3.123,0,0,1,1.153.457H4.914A.6.6,0,0,1,5,.528,4,4,0,0,1,6.141,1.787l.387.67V14.941L3.12,9.04-.473,15.262Z" transform="translate(19.286)"/>
    </g>
    <text id="FIAT" class="cls-2" transform="translate(611 177)"><tspan x="0" y="0">FIAT</tspan></text>
  </g>
</svg>
