<svg xmlns="http://www.w3.org/2000/svg" viewBox="0 0 30 30.037">
  <defs>
    <style>
      .cls-1 {
        fill: gray;
      }
    </style>
  </defs>
  <g id="line" transform="translate(-594.898 -304.8)">
    <g id="Group_23" data-name="Group 23" transform="translate(594.898 304.8)">
      <path id="Path_47" data-name="Path 47" class="cls-1" d="M609.907,304.8A15.018,15.018,0,1,1,594.9,319.79,15.044,15.044,0,0,1,609.907,304.8Zm9.486,13.713a13.576,13.576,0,0,0-.3-1.747,7.87,7.87,0,0,0-4.076-4.9,10.553,10.553,0,0,0-6.631-1.165,9.173,9.173,0,0,0-6.669,3.87,6.516,6.516,0,0,0-.47,7.063,8.471,8.471,0,0,0,5.26,4.227,17.6,17.6,0,0,0,2.2.47c.6.113.808.338.7.92-.094.432-.244.864-.376,1.3-.113.413.019.6.451.488a4.342,4.342,0,0,0,1.089-.47,40.044,40.044,0,0,0,6.612-5.016A7.329,7.329,0,0,0,619.394,318.513Z" transform="translate(-594.898 -304.8)"/>
      <path id="Path_48" data-name="Path 48" class="cls-1" d="M669.914,372.078v2.141a1.065,1.065,0,0,1-.038.432c-.075.132-.244.3-.376.3s-.282-.188-.376-.319a.75.75,0,0,1-.038-.357v-2.949c0-.113.019-.225.019-.319,0-.263.131-.488.376-.488a.751.751,0,0,1,.564.282c.394.507.714,1.071,1.071,1.6a7.763,7.763,0,0,0,.77,1.033v-2.4c.019-.263.075-.526.413-.526.319,0,.376.244.376.507v3.4c0,.225-.019.47-.3.564a.6.6,0,0,1-.676-.244c-.376-.545-.733-1.108-1.108-1.672-.207-.319-.432-.639-.639-.977Z" transform="translate(-655.148 -358.158)"/>
      <path id="Path_49" data-name="Path 49" class="cls-1" d="M694.647,371.476v1.071h1.54c.263,0,.639-.094.639.338,0,.413-.376.319-.639.319-.488.019-1,0-1.522,0v1.24h1.709a.919.919,0,0,1,.394.019c.131.075.3.207.3.319a.5.5,0,0,1-.282.338,3.143,3.143,0,0,1-.733.038h-1.672c-.488-.019-.62-.132-.62-.6,0-1.052-.019-2.085,0-3.137,0-.507.131-.62.639-.62h2.16c.244,0,.47.038.47.338s-.225.338-.451.338Z" transform="translate(-675.185 -358.402)"/>
      <path id="Path_50" data-name="Path 50" class="cls-1" d="M640.047,374.231h1.691c.263,0,.526.019.507.357,0,.319-.263.357-.488.357-.676,0-1.334.019-2.01,0-.451,0-.582-.132-.582-.564-.019-1.108,0-2.217,0-3.306,0-.056-.019-.15.019-.169.113-.132.225-.319.376-.357.225-.056.394.094.432.338a2.568,2.568,0,0,1,.038.545C640.066,372.333,640.047,373.254,640.047,374.231Z" transform="translate(-630.842 -358.188)"/>
      <path id="Path_51" data-name="Path 51" class="cls-1" d="M659.1,372.612v-1.634c0-.282.056-.545.413-.582.282-.019.451.188.451.582V374.3c0,.075.019.169-.038.207-.131.131-.263.338-.413.376a.362.362,0,0,1-.413-.394c0-.639.019-1.259,0-1.878Z" transform="translate(-647.04 -358.072)"/>
    </g>
  </g>
</svg>
