<svg xmlns="http://www.w3.org/2000/svg" xmlns:xlink="http://www.w3.org/1999/xlink" viewBox="0 0 44.919 55">
  <defs>
    <style>
      .cls-1 {
        fill: url(#linear-gradient);
      }

      .cls-2 {
        fill: url(#linear-gradient-2);
      }

      .cls-3 {
        fill: #efa34b;
      }

      .cls-4 {
        font-size: 14px;
        font-family: Helvetica;
        letter-spacing: 0.2em;
      }
    </style>
    <linearGradient id="linear-gradient" x1="0.5" x2="0.5" y2="1" gradientUnits="objectBoundingBox">
      <stop offset="0" stop-color="#b90024"/>
      <stop offset="0.433" stop-color="#c92f2f"/>
      <stop offset="0.688" stop-color="#da633c"/>
      <stop offset="0.874" stop-color="#e78945"/>
      <stop offset="1" stop-color="#efa34b"/>
    </linearGradient>
    <linearGradient id="linear-gradient-2" x1="0.5" x2="0.5" y2="1" gradientUnits="objectBoundingBox">
      <stop offset="0" stop-color="#b90024"/>
      <stop offset="1" stop-color="#efa34b"/>
    </linearGradient>
  </defs>
  <g id="Logo" transform="translate(-79.302 -47)">
    <g id="logo-2" data-name="logo" transform="translate(79.354 46.543)">
      <path id="Intersection_6" data-name="Intersection 6" class="cls-1" d="M37.659,35.457,22.406,9.04,7.154,35.457H-.052l19.67-34.07a3.113,3.113,0,0,1,.822-.931H24.2l.091.071a4,4,0,0,1,1.136,1.259l19.439,33.67Z" transform="translate(0)"/>
      <path id="Rectangle_14" data-name="Rectangle 14" class="cls-2" d="M3.5,0h0A3.5,3.5,0,0,1,7,3.5V35a0,0,0,0,1,0,0H0a0,0,0,0,1,0,0V3.5A3.5,3.5,0,0,1,3.5,0Z" transform="translate(18.814 0.457)"/>
      <path id="Intersection_7" data-name="Intersection 7" class="cls-3" d="M-.473,2.78l.8-1.392A3.123,3.123,0,0,1,1.153.457H4.914C4.945.481,4.975.5,5,.528A4,4,0,0,1,6.141,1.787l.387.67V14.941L3.12,9.04-.473,15.262Z" transform="translate(19.286 0)"/>
    </g>
    <text id="FIAT" class="cls-4" transform="translate(82.168 99)"><tspan x="0" y="0">FIAT</tspan></text>
  </g>
</svg>
